<?xml version="1.0" encoding="UTF-8" standalone="no"?>
<!-- Created with Inkscape (http://www.inkscape.org/) -->

<svg
   version="1.1"
   id="svg9012"
   width="312.01208"
   height="410.11725"
   viewBox="0 0 312.01208 410.11725"
   sodipodi:docname="final_vector.svg"
   inkscape:version="1.1.1 (3bf5ae0d25, 2021-09-20)"
   xmlns:inkscape="http://www.inkscape.org/namespaces/inkscape"
   xmlns:sodipodi="http://sodipodi.sourceforge.net/DTD/sodipodi-0.dtd"
   xmlns="http://www.w3.org/2000/svg"
   xmlns:svg="http://www.w3.org/2000/svg">
  <defs
     id="defs9016">
    <rect
       x="495.5"
       y="448.5"
       width="160.5"
       height="41"
       id="rect147475" />
    <rect
       x="-333"
       y="95"
       width="146"
       height="45"
       id="rect132685" />
    <rect
       x="586.89862"
       y="249.60869"
       width="137.17873"
       height="50.204582"
       id="rect103884" />
  </defs>
  <sodipodi:namedview
     id="namedview9014"
     pagecolor="#ffffff"
     bordercolor="#666666"
     borderopacity="1.0"
     inkscape:pageshadow="2"
     inkscape:pageopacity="0.0"
     inkscape:pagecheckerboard="true"
     showgrid="false"
     fit-margin-top="0"
     fit-margin-left="0"
     fit-margin-right="0"
     fit-margin-bottom="0"
     inkscape:zoom="1"
     inkscape:cx="100.5"
     inkscape:cy="256.5"
     inkscape:window-width="1920"
     inkscape:window-height="1017"
     inkscape:window-x="1912"
     inkscape:window-y="-8"
     inkscape:window-maximized="1"
     inkscape:current-layer="layer3"
     borderlayer="false"
     showborder="false" />
  <g
     inkscape:groupmode="layer"
     id="layer3"
     inkscape:label="Image 1"
     style="display:inline"
     transform="translate(-59.35255,-50.197877)">
    <path
       style="fill:#3b3b3b;fill-opacity:1;stroke-width:0.501619"
       d="m 195.36198,459.85992 c -1.08638,-0.23793 -4.43809,-0.44582 -7.44823,-0.46198 -5.41471,-0.0291 -11.06961,-0.83193 -11.06961,-1.57165 0,-0.21038 -0.80674,-0.53867 -1.79273,-0.72954 -0.986,-0.19087 -2.59706,-0.85169 -3.58012,-1.46848 -3.90372,-2.44925 -27.14561,-14.09403 -28.13037,-14.09403 -0.3133,0 -0.56962,-0.21108 -0.56962,-0.46906 0,-0.25799 -0.64808,-0.61595 -1.44017,-0.79547 -0.7921,-0.17952 -1.56287,-0.65634 -1.71285,-1.05959 -0.14995,-0.40326 -0.61294,-0.73319 -1.02887,-0.73319 -0.41591,0 -0.7562,-0.2293 -0.7562,-0.50956 0,-0.28025 -0.27777,-0.50983 -0.61727,-0.51017 -0.33949,-3.4e-4 -1.21607,-0.51627 -1.94794,-1.14649 -0.73187,-0.63023 -2.06516,-1.70912 -2.96285,-2.39753 -1.69755,-1.30179 -7.30027,-6.97913 -9.07332,-9.19417 -0.56083,-0.70063 -2.17598,-2.33247 -3.58922,-3.62629 -6.32601,-5.79146 -12.86947,-12.68948 -15.14152,-15.96198 -3.61579,-5.20791 -7.286316,-9.51943 -14.725528,-17.29708 -3.753519,-3.92428 -7.750184,-8.29412 -8.88148,-9.71076 -1.131296,-1.41664 -2.337858,-2.75908 -2.681249,-2.9832 -0.343391,-0.22411 -0.624348,-0.63506 -0.624348,-0.91322 0,-0.27815 -0.234748,-0.78268 -0.521662,-1.12118 -0.286914,-0.33848 -1.762015,-2.33517 -3.278001,-4.43707 -1.515987,-2.1019 -3.558934,-4.8511 -4.539883,-6.10932 -0.980949,-1.25823 -1.954323,-2.51937 -2.163053,-2.80254 -0.208731,-0.28318 -0.826329,-1.07361 -1.372439,-1.75653 -1.353252,-1.69226 -3.68868,-6.72387 -4.981653,-10.73282 -0.751773,-2.33093 -1.136414,-5.04772 -1.29842,-9.171 -0.227452,-5.78899 0.492489,-12.43772 1.410157,-13.02295 0.247088,-0.15757 0.44925,-0.68493 0.44925,-1.1719 0,-1.02853 0.765399,-2.11141 4.306205,-6.09239 1.41783,-1.59409 2.584455,-3.06241 2.592499,-3.26294 0.01276,-0.31828 0.765912,-1.24431 3.640445,-4.47615 0.656546,-0.73815 2.411546,-2.22629 5.50965,-4.67183 0.814786,-0.64317 1.5555,-1.34556 1.646032,-1.56088 0.09053,-0.21531 0.480211,-0.39147 0.865956,-0.39147 0.385743,0 1.515589,-0.45032 2.510768,-1.00071 0.995179,-0.5504 2.82764,-1.13454 4.072136,-1.29811 4.70452,-0.61834 9.662367,-2.3596 10.904382,-3.82976 0.135797,-0.16074 1.525815,-0.85394 3.088926,-1.54042 1.56312,-0.6865 3.5212,-1.87875 4.35131,-2.64944 0.83011,-0.7707 1.66223,-1.40327 1.84916,-1.40571 0.18694,-0.002 2.45092,-2.06588 5.03107,-4.58542 7.47578,-7.30019 8.92781,-8.65851 9.25585,-8.65851 1.0645,0 8.45016,-3.98026 9.8797,-5.32434 0.61134,-0.57478 3.05569,-2.07595 5.4319,-3.33593 2.37621,-1.25997 4.43149,-2.4234 4.56729,-2.5854 0.25927,-0.30928 3.97493,-1.69045 6.91333,-2.56978 0.95059,-0.28446 2.42856,-0.84649 3.28439,-1.24894 0.85583,-0.40246 1.91135,-0.73174 2.34559,-0.73174 0.43425,0 0.78953,-0.20063 0.78953,-0.44586 0,-0.24522 0.67956,-0.5861 1.5101,-0.7575 0.83054,-0.1714 1.81724,-0.60134 2.19264,-0.95541 0.37541,-0.35407 1.46746,-1.21701 2.4268,-1.91765 0.95933,-0.70063 1.75035,-1.51387 1.75782,-1.80718 0.0287,-1.12814 6.92337,-8.89342 7.89626,-8.89342 0.77273,0 0.61411,1.01069 -0.20982,1.33694 -0.39705,0.15723 -0.85605,0.72192 -1.01997,1.25487 -0.16393,0.53296 -0.67236,1.35589 -1.12987,1.82874 -0.77515,0.80114 -0.82091,7.42287 -0.67183,97.20016 0.0971,58.47276 0.3397,96.40721 0.61726,96.5103 0.2515,0.0934 0.45728,0.51267 0.45728,0.93167 0,1.1924 3.75374,4.61444 5.80292,5.29015 1.01812,0.33572 2.06223,0.812 2.32024,1.05839 0.70356,0.67189 17.24044,0.56868 17.89982,-0.11171 0.34663,-0.35769 1.58536,-0.44349 3.43197,-0.23773 4.04185,0.45037 53.08694,1.25558 56.78877,0.93234 2.72462,-0.23792 3.28315,-0.49343 5.43191,-2.48503 1.31726,-1.22092 2.54541,-2.22345 2.72921,-2.22784 0.18381,-0.004 0.73934,-0.75322 1.23453,-1.66404 0.84716,-1.55825 0.92055,-4.57484 1.24272,-51.08265 0.18831,-27.18462 0.48598,-69.31825 0.66148,-93.63028 0.22921,-31.75272 0.16754,-44.20368 -0.21894,-44.20368 -0.2997,0 -0.53803,-0.91522 -0.53803,-2.06617 0,-1.13639 -0.45983,-3.10774 -1.02185,-4.38079 -0.56202,-1.27304 -0.89755,-2.4429 -0.74562,-2.59967 0.32964,-0.34015 2.75509,2.26416 2.75509,2.95825 0,0.26582 0.21651,0.4833 0.48113,0.4833 0.26463,0 0.85086,0.73779 1.30277,1.63952 1.00381,2.00307 3.7006,4.77149 5.09187,5.22714 0.56385,0.18466 1.02518,0.5496 1.02518,0.81097 0,0.26137 0.24419,0.47521 0.54263,0.47521 0.29845,0 1.24286,0.33529 2.09869,0.74508 1.36337,0.65281 6.89211,2.69479 12.17295,4.49594 0.95058,0.32421 2.02198,0.88271 2.38087,1.2411 0.35889,0.35839 0.95147,0.65162 1.31683,0.65162 0.36536,0 0.73835,0.17197 0.82889,0.38217 0.0905,0.21018 1.62734,1.14472 3.41511,2.07673 1.78778,0.93201 4.10585,2.47978 5.15125,3.43948 1.04541,0.9597 2.13814,1.74508 2.42829,1.74531 1.05803,7.3e-4 6.4903,2.9551 7.83669,4.26193 0.76089,0.73851 1.46837,1.34275 1.57218,1.34275 0.10382,0 1.40487,1.20381 2.89121,2.67514 4.49372,4.44833 7.90229,7.51591 8.35139,7.51591 0.23367,0 1.02341,0.64124 1.75499,1.425 0.73158,0.78375 2.55231,1.97641 4.04608,2.65036 1.49378,0.67394 3.60482,1.81394 4.6912,2.53333 2.11974,1.40366 5.24579,2.31205 9.68773,2.81515 2.47798,0.28065 5.43846,1.47643 7.02963,2.83937 0.31127,0.26662 1.78397,1.45722 3.27267,2.64578 3.15382,2.51799 3.21317,2.57839 7.4121,7.54297 1.76302,2.0845 3.46106,4.01929 3.77343,4.29954 1.02229,0.91721 3.13974,4.79029 4.16546,7.61918 0.87635,2.41691 0.98377,3.7073 0.83758,10.06071 -0.15597,6.7783 -1.30027,13.86039 -2.3714,14.6767 -0.18387,0.14013 -0.87059,1.40127 -1.52604,2.80254 -1.28338,2.74369 -2.70323,5.08944 -3.88713,6.42195 -2.30032,2.58904 -3.48386,4.12285 -5.66072,7.33597 -4.53285,6.69061 -10.89289,14.28833 -19.01314,22.71314 -5.78046,5.99727 -8.41137,8.98413 -8.41137,9.54943 0,0.28525 -0.17045,0.59507 -0.3788,0.68849 -0.55906,0.25068 -4.06547,4.79315 -4.06547,5.26673 0,0.22327 -1.11108,1.50519 -2.46905,2.84871 -1.35797,1.34353 -2.46905,2.685 -2.46905,2.98107 0,0.29605 -0.17286,0.53828 -0.38413,0.53828 -0.21128,0 -2.56492,2.17833 -5.23032,4.84074 -2.66539,2.66242 -5.048,4.84075 -5.29466,4.84075 -0.24668,0 -0.44849,0.34395 -0.44849,0.76433 0,0.42038 -0.33333,0.76433 -0.74072,0.76433 -0.40739,0 -0.74072,0.20694 -0.74072,0.45987 0,0.5983 -8.55778,9.73118 -9.11841,9.73118 -0.23541,0 -0.77997,0.34987 -1.21016,0.77749 -2.37223,2.35814 -6.64648,5.0148 -15.54339,9.66101 -5.46106,2.85191 -10.37363,5.43565 -10.91682,5.74163 -2.99551,1.68742 -8.31706,4.20197 -8.89262,4.20197 -0.36636,0 -0.9699,0.28662 -1.34118,0.63694 -0.87085,0.82168 -3.77759,2.42038 -4.40069,2.42038 -0.26449,0 -1.5242,0.49074 -2.79937,1.09055 -1.85076,0.87053 -3.91251,1.19077 -10.21945,1.58734 -10.3559,0.65116 -45.85946,0.91616 -48.39331,0.36121 z"
       id="path29338" />
    <path
       style="fill:#3b3b3b;fill-opacity:1;stroke-width:0.501619"
       d="m 197.05736,460.19201 c -0.15392,-0.16333 -3.48714,-0.43227 -7.40714,-0.59765 -7.67856,-0.32394 -11.57,-0.90562 -13.68866,-2.04614 -0.73676,-0.39662 -1.60756,-0.72254 -1.9351,-0.72426 -0.32754,-10e-4 -1.72615,-0.69104 -3.10803,-1.5318 -1.38189,-0.84076 -2.6083,-1.52866 -2.72536,-1.52866 -0.11706,0 -5.29086,-2.57961 -11.49732,-5.73246 -6.20647,-3.15286 -12.48956,-6.30041 -13.96244,-6.99457 -1.47288,-0.69414 -2.94802,-1.49668 -3.27809,-1.78343 -0.33007,-0.28673 -0.93178,-0.80796 -1.33713,-1.15828 -0.40535,-0.35031 -0.91305,-0.63722 -1.1282,-0.63756 -0.21517,-3.4e-4 -0.99002,-0.51627 -1.72189,-1.14649 -0.73187,-0.63023 -2.06516,-1.70767 -2.96285,-2.39431 -0.89771,-0.68665 -4.63207,-4.35567 -8.2986,-8.15339 -3.66653,-3.79773 -8.33303,-8.52537 -10.36999,-10.50588 -4.73348,-4.60228 -7.69705,-7.99716 -11.24016,-12.87602 -2.870436,-3.95257 -6.438625,-8.00484 -14.931731,-16.95743 -5.413029,-5.70589 -9.296569,-10.23761 -10.647185,-12.42425 -1.191547,-1.92912 -8.942121,-12.31319 -10.458948,-14.0127 -2.136324,-2.39362 -5.0441,-8.94878 -6.328848,-14.26747 -1.201909,-4.97574 -0.714417,-17.578 0.758872,-19.61778 0.202423,-0.28024 0.503081,-1.08279 0.668131,-1.78343 0.16505,-0.70063 1.743391,-2.87897 3.507426,-4.84075 1.764035,-1.96177 3.215134,-3.71526 3.224664,-3.89663 0.01693,-0.32228 1.981945,-2.83274 3.490254,-4.4591 0.416335,-0.44892 1.621527,-1.50411 2.678203,-2.34487 1.056677,-0.84076 2.634195,-2.15923 3.505595,-2.92993 0.871401,-0.77069 1.752905,-1.40126 1.958897,-1.40126 0.205992,0 1.287727,-0.45013 2.403855,-1.00027 1.116128,-0.55016 3.855408,-1.3387 6.087289,-1.75231 2.23188,-0.41362 5.009557,-1.22293 6.172615,-1.79846 4.969934,-2.45933 10.517511,-5.63175 10.988521,-6.28386 0.27968,-0.38721 0.87964,-0.91667 1.33324,-1.17658 0.45361,-0.25991 2.7025,-2.30695 4.99755,-4.54898 5.79038,-5.65665 8.76956,-8.40762 9.10507,-8.40762 0.75942,0 6.18812,-2.88995 9.26929,-4.93447 6.57974,-4.36601 11.15736,-6.70704 17.41637,-8.90685 3.45756,-1.2152 6.39759,-2.34615 6.53337,-2.51322 0.1358,-0.16708 0.91133,-0.47191 1.72339,-0.67741 0.81207,-0.2055 1.58982,-0.53848 1.72834,-0.73995 0.13852,-0.20148 0.98633,-0.89584 1.88404,-1.54302 0.8977,-0.64719 2.17038,-2.05643 2.82816,-3.13165 1.50817,-2.46526 6.76436,-8.12658 7.54504,-8.12658 0.78195,0 0.74835,0.8656 -0.0534,1.37595 -0.35208,0.22412 -1.18538,1.32468 -1.85179,2.44569 l -1.21162,2.03821 0.1373,94.52199 c 0.0942,64.83947 0.30335,95.28146 0.66606,96.94044 0.6817,3.11796 4.00149,6.33247 7.96728,7.71463 2.46222,0.85814 3.59513,0.91953 10.57328,0.5729 9.64865,-0.47928 11.41354,-0.48393 28.30866,-0.0747 26.05549,0.63116 37.79387,0.74446 40.24553,0.38845 2.94772,-0.42805 7.52105,-3.86635 8.86403,-6.66411 1.16987,-2.43714 1.20067,-3.8692 1.55684,-72.3809 0.62416,-120.06262 0.64723,-118.01796 -1.38503,-122.72437 -0.52609,-1.21836 -0.83223,-2.34347 -0.6803,-2.50024 0.32964,-0.34015 2.75509,2.26416 2.75509,2.95825 0,0.26582 0.20181,0.4833 0.44847,0.4833 0.24665,0 1.07996,1.04247 1.85178,2.31659 1.37244,2.26563 4.61378,4.87894 8.06974,6.50618 1.54274,0.72641 10.54205,4.02777 13.08595,4.80053 0.54319,0.165 1.09872,0.44712 1.23452,0.62694 0.1358,0.17981 1.6913,1.08523 3.45667,2.01205 4.20216,2.20613 7.40515,4.27338 7.40625,4.78009 4.9e-4,0.22302 1.91528,1.31383 4.25511,2.42401 3.90361,1.85218 7.20335,4.08119 9.07862,6.13273 1.45061,1.58697 9.72993,9.12688 10.02192,9.12688 0.16346,0 0.91973,0.60059 1.68061,1.33466 0.76088,0.73406 2.88525,2.09236 4.72084,3.01844 1.83558,0.92608 4.05771,2.13187 4.93809,2.67954 1.65415,1.02903 4.7247,1.84696 9.00781,2.39947 3.08131,0.39748 5.52694,1.67371 9.62104,5.02065 5.5687,4.55241 12.5849,12.80352 14.85122,17.46516 1.66551,3.4258 1.70284,3.64247 1.86009,10.79384 0.13819,6.2843 0.006,7.91198 -0.95611,11.7197 -0.61412,2.43202 -1.59605,5.2244 -2.18208,6.20529 -0.58603,0.98089 -1.44459,2.61234 -1.90791,3.62544 -0.46333,1.0131 -1.27159,2.31736 -1.79613,2.89835 -1.7866,1.97882 -5.2025,6.46211 -7.64714,10.03667 -1.34166,1.96178 -2.66636,3.84553 -2.94379,4.18612 -0.27744,0.34059 -0.73677,0.91384 -1.02074,1.27388 -2.47526,3.13838 -9.46285,11.00643 -14.4526,16.27368 -3.34418,3.53017 -6.45518,6.92574 -6.91333,7.54569 -0.45814,0.61996 -1.88653,2.42583 -3.17419,4.01303 -1.28767,1.5872 -2.34318,3.081 -2.3456,3.31953 -0.005,0.51873 -3.33534,4.16912 -8.3636,9.16804 -2.01743,2.00564 -4.41364,4.39184 -5.32491,5.30267 -0.91129,0.91082 -1.87169,1.65604 -2.13423,1.65604 -0.26254,0 -0.47734,0.21213 -0.47734,0.47138 0,0.72891 -10.00224,11.24833 -10.69531,11.24833 -0.33728,0 -0.79094,0.30684 -1.00814,0.68187 -0.75644,1.30616 -7.8457,5.83932 -14.22154,9.09385 -3.53074,1.80224 -9.57768,4.92597 -13.43764,6.9416 -3.85996,2.01563 -7.34672,3.66478 -7.74835,3.66478 -0.40163,0 -0.8673,0.22886 -1.03484,0.50857 -0.41301,0.68957 -5.32683,3.0583 -6.3443,3.0583 -0.44908,0 -0.81652,0.20858 -0.81652,0.46352 0,0.52713 -4.8904,1.39314 -10.36999,1.83635 -5.25354,0.42493 -46.60742,0.91979 -46.94483,0.56177 z"
       id="path29377" />
    <path
       style="fill:#3b3b3b;fill-opacity:1;stroke-width:0.501619"
       d="m 173.78428,244.11161 c 0.11336,-1.00202 0.40378,-1.94791 0.64537,-2.10199 0.59424,-0.37897 0.5627,-5.82505 -0.0337,-5.82505 -0.26015,0 -1.08279,-1.08917 -1.82808,-2.42038 -0.7453,-1.3312 -1.47686,-2.53519 -1.6257,-2.67553 -0.79761,-0.75207 -5.32969,-10.24531 -5.7445,-12.03287 -0.18761,-0.80844 -0.50369,-1.69919 -0.70242,-1.97944 -0.19875,-0.28025 -0.51662,-1.39766 -0.70641,-2.4831 -0.18979,-1.08546 -0.54264,-2.34661 -0.78409,-2.80255 -0.89954,-1.6986 -2.12087,-8.09934 -2.32149,-12.16653 l -0.20735,-4.2038 h -3.91419 c -2.28026,0 -3.9142,-0.21271 -3.9142,-0.50955 0,-0.28026 -0.29153,-0.50956 -0.64785,-0.50956 -2.11662,0 -4.03653,-6.41405 -4.61383,-15.41396 -0.17527,-2.73248 -0.50749,-4.96814 -0.73826,-4.96814 -0.59323,0 -0.52429,-4.9686 0.0742,-5.3503 0.70137,-0.4473 0.6115,-1.89299 -0.2253,-3.62385 -1.15095,-2.38071 -0.82447,-14.04647 0.4722,-16.8725 0.97736,-2.13009 1.01496,-2.15259 3.6189,-2.16559 2.41534,-0.0121 2.7978,0.15529 4.66046,2.03937 1.11605,1.12888 2.543,2.16073 3.17098,2.29298 0.62799,0.13226 1.69734,0.35949 2.37633,0.50496 0.67898,0.14546 1.23452,0.12908 1.23452,-0.0364 0,-0.74719 -1.52472,-1.75676 -2.65314,-1.75676 -2.54417,0 -4.36062,-3.0899 -5.09362,-8.66457 -0.17124,-1.30236 0.10863,-2.40558 1.03409,-4.07642 0.69788,-1.25995 1.27155,-2.00593 1.27482,-1.65775 0.0119,1.27114 2.12425,3.2104 3.13597,2.87906 0.76747,-0.25136 0.90241,-0.13628 0.64664,0.55148 -0.49174,1.32231 0.17649,1.98263 0.94622,0.93502 0.37269,-0.50721 0.68467,-2.01137 0.69332,-3.34258 0.0146,-2.2518 -0.071,-2.42037 -1.22941,-2.42037 -0.8447,0 -1.42373,0.40452 -1.80054,1.2579 -0.61904,1.40196 -1.39864,1.25208 -1.39864,-0.26887 0,-1.0977 -1.42329,-1.35475 -2.32863,-0.42054 -0.40536,0.41828 -0.48895,-0.28856 -0.31634,-2.67515 0.4619,-6.38699 1.21511,-12.3756 1.62254,-12.90054 0.22802,-0.29378 0.57229,-1.29482 0.76505,-2.22452 0.19275,-0.92971 0.66147,-2.3055 1.0416,-3.05732 0.38012,-0.75182 0.6925,-1.72236 0.69417,-2.15675 10e-4,-0.43439 0.27508,-1.07051 0.60757,-1.4136 0.353,-0.36426 0.63097,-2.17625 0.66809,-4.35502 0.0685,-4.02184 0.55847,-5.296883 3.66547,-9.538898 0.95058,-1.297838 2.05572,-2.850967 2.45585,-3.451399 0.40013,-0.600431 1.12233,-1.220997 1.60487,-1.379037 0.49559,-0.162305 0.87738,-0.782527 0.87738,-1.425301 0,-1.720291 1.13927,-3.884085 1.97524,-3.75155 0.4379,0.06943 0.80521,-0.351265 0.89851,-1.02906 0.10613,-0.771144 -0.096,-1.146494 -0.61726,-1.146494 -0.42629,0 -0.77507,-0.229298 -0.77507,-0.509551 0,-0.280255 0.22222,-0.509553 0.49382,-0.509553 0.64294,0 0.64294,-2.392504 0,-2.802539 -0.59481,-0.379333 -0.66472,-5.96407 -0.0833,-6.649661 0.22581,-0.266241 0.70755,-1.515919 1.07054,-2.777061 l 0.65999,-2.292987 0.43994,2.165599 c 0.24197,1.191079 0.63142,2.165598 0.86545,2.165598 0.23404,0 0.57137,0.685266 0.74965,1.522814 0.39573,1.859196 0.80605,2.145964 3.07049,2.145964 1.97618,0 2.87809,0.730158 4.59478,3.719734 0.6437,1.121016 1.46034,2.221578 1.81471,2.445694 0.8192,0.518057 0.83593,2.217948 0.0271,2.7519 -0.33949,0.224116 -1.17279,1.519125 -1.85178,2.877797 -1.39547,2.792374 -3.24286,4.599433 -5.85217,5.724433 -1.63239,0.703799 -1.83483,0.694616 -2.40434,-0.109054 -0.89055,-1.256735 -1.39494,-0.437968 -0.69989,1.136131 0.49293,1.116346 0.80093,1.273149 1.932,0.983583 0.74008,-0.189466 1.41966,-0.556828 1.51019,-0.81636 0.0905,-0.259532 0.59932,-0.471877 1.13063,-0.471877 1.17853,0 4.50903,-3.410692 5.43237,-5.563163 0.37055,-0.863815 0.84169,-1.570572 1.04699,-1.570572 0.20529,0 0.37327,-0.351144 0.37327,-0.780321 0,-0.429177 0.33332,-0.912306 0.74071,-1.073622 1.16052,-0.459534 0.87373,-2.157291 -0.71382,-4.225638 l -1.45452,-1.895039 1.37681,-1.246645 c 0.75725,-0.685655 1.63118,-1.737093 1.94208,-2.336528 0.31089,-0.599436 1.23471,-1.395662 2.05294,-1.769392 0.81824,-0.37373 1.48769,-0.834615 1.48769,-1.024188 0,-0.189572 0.66665,-0.495765 1.48143,-0.680428 0.81478,-0.184662 1.48143,-0.546829 1.48143,-0.804814 0,-0.257987 0.25343,-0.469067 0.56317,-0.469067 0.30975,0 1.47638,-0.440305 2.5925,-0.978457 3.12385,-1.506193 7.1709,-2.673116 10.30063,-2.970085 1.56167,-0.148181 2.8394,-0.480404 2.8394,-0.738274 0,-0.257869 0.22378,-0.326138 0.4973,-0.151709 0.27351,0.17443 0.64862,-0.09866 0.83356,-0.606868 0.18495,-0.508207 0.60142,-1.153312 0.92547,-1.433566 0.32407,-0.280254 0.73617,-1.528142 0.91578,-2.773084 0.66202,-4.588471 2.94231,-10.730058 3.98393,-10.730058 1.08438,0 2.13044,3.946944 2.39973,9.054634 l 0.27485,5.212836 h -1.70555 c -0.93805,0 -1.70555,0.2293 -1.70555,0.509553 0,0.280254 1.22218,0.509553 2.71595,0.509553 1.84338,0 2.71606,0.204635 2.71629,0.63694 2.3e-4,0.43662 1.01402,0.661071 3.22345,0.713662 1.77271,0.0422 3.49472,0.302343 3.82669,0.578102 0.33196,0.275759 1.38132,0.668471 2.3319,0.872695 0.95058,0.204223 2.66055,0.803947 3.79993,1.33272 1.13937,0.528774 2.30601,0.961406 2.5925,0.961406 0.28649,0 0.52694,0.171974 0.53432,0.382165 0.007,0.21019 1.22956,0.953512 2.71596,1.651828 1.78294,0.837639 2.70253,1.574521 2.70253,2.165598 0,0.492764 0.23281,0.895935 0.51738,0.895935 0.69303,0 2.93928,2.535502 2.93928,3.31778 0,0.341663 -0.44444,1.204217 -0.98762,1.916788 -1.10473,1.449217 -1.31527,4.179992 -0.37036,4.803774 0.33949,0.224117 1.06169,1.313485 1.60488,2.420818 1.41068,2.875776 4.40358,5.884731 5.85332,5.884731 0.66069,0 1.32915,0.343948 1.48549,0.764329 0.15633,0.420381 0.84674,0.764329 1.53426,0.764329 0.78192,0 1.25001,-0.28622 1.25001,-0.764329 0,-0.420381 0.22222,-0.764329 0.49382,-0.764329 0.2716,0 0.4938,-0.375994 0.4938,-0.835542 0,-0.459549 0.36728,-1.112659 0.81617,-1.451357 0.44887,-0.338698 0.65797,-0.879898 0.46466,-1.202667 -0.68755,-1.147954 -1.54045,-0.551108 -2.44081,1.708042 -0.81687,2.049673 -1.80286,3.051258 -1.80286,1.831371 0,-0.252838 -0.6111,-0.72495 -1.35799,-1.049137 -2.85045,-1.237245 -3.40704,-1.79664 -5.65304,-5.681504 l -2.3109,-3.9971 2.05358,-3.196058 c 2.71893,-4.231594 2.77861,-4.283894 4.98607,-4.369527 2.15766,-0.0837 2.67635,-0.62891 4.03477,-4.241091 0.51368,-1.365927 1.09003,-2.483505 1.28077,-2.483505 0.83206,0 1.57377,4.167086 1.49648,8.407617 -0.0824,4.519334 -0.0642,4.595229 1.24844,5.222914 0.73262,0.350318 1.92023,0.63694 2.63916,0.63694 1.65639,0 4.42169,-1.401809 4.42169,-2.241484 0,-0.351002 0.57611,-1.194078 1.28023,-1.873501 0.70414,-0.679424 1.54741,-1.907233 1.87393,-2.728465 l 0.59369,-1.49315 1.0363,1.8124 c 0.56997,0.99682 1.18819,2.525978 1.37383,3.398128 0.18563,0.87215 0.54264,1.71654 0.79335,1.876421 0.88389,0.5637 0.0988,4.677907 -1.47943,7.752911 -1.29938,2.531669 -2.38841,5.117292 -2.69522,6.39914 -0.37574,1.569851 -1.25522,1.591796 -2.04196,0.05095 -1.66359,-3.258167 -4.10212,-6.306766 -5.05555,-6.320364 -0.35474,-0.0051 -0.61727,-0.658931 -0.61727,-1.537461 0,-0.840761 -0.2222,-1.528657 -0.4938,-1.528657 -0.2716,0 -0.49381,-0.42306 -0.49381,-0.940131 0,-1.02267 -1.45612,-2.626738 -2.38447,-2.626738 -0.31811,0 -0.57839,0.343949 -0.57839,0.76433 0,0.42038 0.30637,0.764328 0.68081,0.764328 0.74179,0 1.78665,2.194647 1.92099,4.034918 0.0508,0.695525 0.82327,1.694488 1.94049,2.509345 1.02088,0.744591 1.8609,1.523154 1.86669,1.730141 0.01,0.350791 0.35637,0.825549 2.60305,3.566181 0.47528,0.579789 0.86416,1.260956 0.86416,1.513704 0,0.252749 0.46357,1.509573 1.03015,2.792943 0.71263,1.61421 0.93601,2.85116 0.72473,4.01325 -0.21074,1.15914 0.11794,2.99383 1.06032,5.91887 0.75116,2.33146 1.51431,4.35367 1.6959,4.4938 0.18159,0.14013 0.48828,1.34395 0.68155,2.67515 0.19326,1.33121 0.52842,2.42037 0.74479,2.42037 0.21639,0 0.52799,2.00636 0.69247,4.45858 0.16448,2.45222 0.41094,5.68324 0.54772,7.18003 0.22736,2.48812 0.18133,2.65194 -0.53689,1.91082 -1.16727,-1.20448 -2.53544,-1.00699 -2.88153,0.41593 -0.16409,0.67459 -0.43416,1.59179 -0.60018,2.03821 -0.17284,0.46477 -0.0484,0.81167 0.29103,0.81167 0.32609,0 0.7091,-0.4586 0.85114,-1.01911 0.46064,-1.81764 2.01989,-1.22158 2.67104,1.02109 0.46546,1.60307 0.45783,2.83129 -0.0357,5.73247 -0.70433,4.14117 -1.40015,5.24551 -3.65463,5.80022 -2.39921,0.59032 -2.52474,0.54637 -2.7882,-0.97607 -0.40335,-2.3308 -1.22295,-1.82952 -1.3878,0.84879 l -0.15327,2.49022 1.57297,-0.32462 c 0.86514,-0.17854 1.94926,-0.32462 2.40916,-0.32462 0.45991,0 1.70987,-0.80237 2.77769,-1.78304 1.06781,-0.98067 2.21925,-1.78322 2.55875,-1.78343 0.33949,-2.2e-4 0.61726,-0.2297 0.61726,-0.50996 0,-0.28025 1.07473,-0.50955 2.38829,-0.50955 2.38619,0 2.38946,0.002 3.70357,2.68246 1.21821,2.48452 1.31527,3.15823 1.31527,9.12949 0,4.31292 -0.18342,6.51011 -0.55412,6.63761 -0.37101,0.12762 -0.60085,2.90227 -0.6955,8.3964 -0.0777,4.51319 -0.36076,8.63123 -0.6289,9.1512 -0.26813,0.51997 -0.64654,2.70727 -0.84088,4.86068 -0.3447,3.81935 -0.65072,4.56727 -2.99531,7.32065 -0.88734,1.04205 -1.54444,1.22201 -4.9381,1.35243 l -3.91456,0.15046 -0.29251,3.56686 c -0.3065,3.7374 -1.12768,8.28548 -1.88606,10.44583 -0.24595,0.70063 -0.93985,2.99362 -1.54201,5.09552 -0.60215,2.10191 -1.26625,4.28025 -1.47578,4.84075 -1.16954,3.12865 -4.49354,9.60339 -6.73505,13.11906 l -2.57178,4.03366 0.28185,3.6529 c 0.15502,2.0091 0.50556,3.94507 0.77899,4.30216 0.7346,0.95936 0.0185,1.39252 -0.94201,0.56985 -0.68643,-0.58789 -5.7052,-0.71197 -29.27013,-0.72364 -29.94299,-0.0149 -50.472,0.3741 -52.1726,0.98845 -0.9228,0.33335 -0.99687,0.20025 -0.80961,-1.45494 z m 16.3927,-65.50648 c 0,-0.75489 0.32921,-1.0191 1.2698,-1.0191 0.69839,0 1.6428,-0.38747 2.09868,-0.86102 0.77724,-0.80737 0.83855,-0.75973 0.98364,0.76433 0.0951,0.9991 0.42809,1.62535 0.86416,1.62535 0.39018,0 0.70943,-0.23498 0.70943,-0.52217 0,-0.28719 0.53792,-0.7332 1.19538,-0.99114 0.88585,-0.34753 1.12667,-0.7401 0.93003,-1.51604 -0.18691,-0.73753 -0.0293,-1.04708 0.53295,-1.04708 0.43907,0 0.79831,-0.34394 0.79831,-0.76432 0,-0.50696 -0.54041,-0.79004 -1.60489,-0.84068 -1.53568,-0.0731 -1.54506,-0.0856 -0.21755,-0.29155 1.62056,-0.25137 1.6965,-1.92509 0.0873,-1.92509 -1.11999,0 -1.63688,-0.90371 -1.68685,-2.94921 -0.0302,-1.23691 0.13222,-1.4016 1.25654,-1.27388 1.85974,0.21124 2.66343,-1.24344 1.45085,-2.62604 -0.50597,-0.57692 -1.11212,-1.04894 -1.34703,-1.04894 -0.2349,0 -1.34392,-0.59721 -2.46448,-1.32715 -1.5901,-1.03579 -2.88888,-1.38738 -5.91589,-1.60147 -3.2845,-0.2323 -3.87851,-0.41274 -3.87851,-1.17815 0,-0.4971 -0.27776,-0.99931 -0.61726,-1.11601 -0.67653,-0.23257 -0.93971,-4.45872 -0.27766,-4.45872 0.22061,0 0.40111,0.80255 0.40111,1.78344 0,1.48024 0.17889,1.78343 1.05223,1.78343 0.91996,0 1.01813,-0.21682 0.78097,-1.72486 -0.23163,-1.47285 -0.14279,-1.6902 0.60801,-1.48761 0.86804,0.23424 1.75744,-1.05646 1.27874,-1.8557 -0.12855,-0.21463 -1.35144,-0.27942 -2.71755,-0.14396 -1.79282,0.17775 -2.48383,0.068 -2.48383,-0.39478 0,-0.44806 0.52034,-0.55392 1.72833,-0.35165 1.57919,0.26444 1.72833,0.18225 1.72833,-0.95243 0,-1.25102 -1.1307,-1.7301 -1.72833,-0.73229 -0.4572,0.76337 -1.72833,0.61372 -1.72833,-0.20347 0,-0.98715 -4.46054,-1.36481 -4.81643,-0.40779 -0.38824,1.04398 0.72628,1.97832 1.45853,1.22272 0.92541,-0.95491 1.87647,-0.71957 1.87647,0.46435 0,0.94947 -0.19902,1.03729 -1.69478,0.74773 -1.19215,-0.23077 -1.81459,-0.11862 -2.0987,0.37813 -0.22214,0.38841 -0.7349,0.81547 -1.13946,0.94901 -0.51636,0.17043 -0.68904,0.80012 -0.57943,2.11292 0.11949,1.43116 -0.0266,1.87013 -0.62241,1.87013 -0.4282,0 -0.77855,-0.22929 -0.77855,-0.50955 0,-0.84948 -1.35333,-0.56985 -1.69554,0.35034 -0.19396,0.52159 -0.0205,1.03272 0.44099,1.2992 0.41841,0.24162 0.76075,1.11582 0.76075,1.94265 0,1.41804 0.11906,1.50728 2.09869,1.57273 1.15428,0.0382 1.59871,0.16876 0.98762,0.29021 -2.10879,0.41913 -0.91619,2.94052 2.01106,4.25182 0.59138,0.26492 1.40857,0.69918 1.81596,0.96503 0.40739,0.26584 1.57401,0.62073 2.5925,0.78863 1.01848,0.1679 1.85178,0.52419 1.85178,0.79174 0,0.26756 -0.22221,0.48646 -0.49381,0.48646 -0.81267,0 -0.53891,1.69498 0.49381,3.05732 0.53111,0.70064 0.9706,1.90445 0.97664,2.67515 0.006,0.7707 0.23319,1.40127 0.50479,1.40127 0.27159,0 0.49381,0.64968 0.49381,1.44373 0,1.68585 0.32206,2.12314 1.56373,2.12314 0.5761,0 0.90531,-0.37058 0.90531,-1.01911 z m 47.15878,-11.82877 c 4.1436,0.44231 9.84007,0.67451 10.7522,0.43828 1.19356,-0.30912 5.2966,-4.13135 5.2966,-4.93411 0,-0.26985 -0.64812,-0.49063 -1.44028,-0.49063 -0.79215,0 -1.53303,-0.28663 -1.64638,-0.63694 -0.27058,-0.83618 -13.56264,-0.91474 -14.09144,-0.0833 -0.19367,0.30451 -1.38879,1.17477 -2.65581,1.9339 -3.21644,1.9271 -3.77211,2.70339 -2.58423,3.61025 0.65728,0.50178 1.60154,0.61726 3.15958,0.38638 1.22218,-0.1811 2.66657,-0.28184 3.20976,-0.22385 z m -74.81209,-17.72527 c 0,-0.28026 -0.22221,-0.50955 -0.49381,-0.50955 -0.2716,0 -0.49381,0.22929 -0.49381,0.50955 0,0.28025 0.22221,0.50955 0.49381,0.50955 0.2716,0 0.49381,-0.2293 0.49381,-0.50955 z m -0.49381,-5.63516 c 0,-0.99237 -0.25021,-1.49858 -0.74071,-1.49858 -0.75978,0 -0.973,1.33025 -0.44207,2.75793 0.45159,1.21435 1.18278,0.43583 1.18278,-1.25935 z m 107.84439,-1.01714 c 0.37514,-2.42081 -0.12027,-7.10563 -0.75141,-7.10563 -0.23661,0 -0.43019,0.80255 -0.43019,1.78344 0,0.98089 0.22221,1.78343 0.49381,1.78343 0.27159,0 0.4938,0.6879 0.4938,1.52866 0,0.84076 -0.22221,1.52866 -0.4938,1.52866 -0.2716,0 -0.49381,0.70143 -0.49381,1.55873 0,2.16913 0.79015,1.44873 1.1816,-1.07729 z m 1.28745,-7.10563 c 0,-1.83438 -0.12345,-2.0382 -1.23453,-2.0382 -0.67899,0 -1.23452,0.22929 -1.23452,0.50955 0,0.28025 0.33332,0.50955 0.74071,0.50955 0.49381,0 0.74071,0.50955 0.74071,1.52866 0,0.84076 0.22222,1.52866 0.49381,1.52866 0.2716,0 0.49382,-0.9172 0.49382,-2.03822 z M 218.32158,96.010162 c 1.7235,-0.765068 2.62182,-1.54305 3.17785,-2.752159 0.84001,-1.826625 1.0094,-3.615026 0.38041,-4.016159 -0.2171,-0.138458 -0.31571,-1.527782 -0.21913,-3.087388 0.10937,-1.765778 -0.0212,-2.835647 -0.34597,-2.835647 -0.28688,0 -0.52158,-0.332554 -0.52158,-0.739009 0,-0.406455 -0.32801,-0.928417 -0.72889,-1.159916 -0.40937,-0.236404 -0.89682,-1.625031 -1.11199,-3.167878 -0.46139,-3.308229 -1.61579,-4.155565 -1.61579,-1.185999 0,1.951746 1.48996,5.883178 2.4654,6.505254 0.27779,0.177155 0.49745,2.462632 0.49745,5.175626 0,4.429845 -0.0871,4.881888 -0.98762,5.124883 -0.54318,0.146576 -0.98762,0.439055 -0.98762,0.649954 0,0.710793 -3.68411,1.007439 -5.25093,0.422806 -2.09032,-0.77997 -2.69915,-3.01843 -2.19629,-8.075226 0.30442,-3.061405 0.63287,-4.117744 1.62323,-5.220417 1.23403,-1.373995 1.85899,-4.231486 1.86924,-8.546606 0.002,-0.994902 0.1978,-2.026746 0.43434,-2.292986 0.58755,-0.661358 1.10198,-3.064541 0.73669,-3.44148 -0.72624,-0.749393 -1.77924,1.458744 -2.02402,4.244398 -0.14713,1.674312 -0.47283,3.044203 -0.72378,3.044203 -0.25094,0 -0.4167,0.401273 -0.36836,0.891717 0.25607,2.597543 -0.10985,4.756866 -0.94648,5.585228 -1.58928,1.573596 -2.13157,3.205282 -2.30794,6.944253 -0.18712,3.967194 0.5739,5.934622 3.08356,7.971654 1.60892,1.305921 3.05927,1.296575 6.06822,-0.0391 z M 172.1966,88.034751 c -0.53944,-0.556635 -0.90934,0.328588 -0.52205,1.249324 0.36724,0.87305 0.39386,0.872254 0.59847,-0.0179 0.11777,-0.51238 0.0834,-1.066518 -0.0764,-1.231419 z m 87.11367,-0.681984 c 0,-1.949531 -1.16319,-1.774608 -1.39077,0.209146 -0.11074,0.965231 0.069,1.361974 0.61726,1.361974 0.5349,0 0.77351,-0.484661 0.77351,-1.57112 z M 217.60051,70.774943 c -0.21041,-1.447883 -0.57436,-2.233157 -1.03499,-2.233157 -0.39075,0 -0.71046,0.145371 -0.71046,0.323046 0,0.382537 0.98465,4.186224 1.36734,5.282031 0.47539,1.36124 0.73261,-0.932583 0.37811,-3.37192 z"
       id="path29416" />
    <path
       style="fill:#b93b3b;fill-opacity:1;stroke-width:0.501619"
       d="m 241.03933,165.76786 c -2.30856,-0.24378 -5.2529,-0.33216 -6.54297,-0.19639 -2.6174,0.27544 -3.10531,-0.39935 -0.98761,-1.36591 0.74688,-0.34089 1.58018,-0.88741 1.85178,-1.21448 1.22313,-1.473 9.52247,-2.20164 13.33285,-1.17056 3.58469,0.97 3.56832,0.95479 2.21892,2.06222 -2.5544,2.09635 -4.44826,2.45796 -9.87297,1.88512 z"
       id="path33743" />
    <path
       style="fill:#b93b3b;fill-opacity:1;stroke-width:0.501619"
       d="m 181.28842,165.52921 c -1.22218,-0.67992 -2.53459,-1.55676 -2.91647,-1.94855 -0.59575,-0.6112 -0.4906,-0.75859 0.74071,-1.03818 0.78928,-0.17923 2.05915,-0.56991 2.82194,-0.86818 0.85724,-0.33521 3.1203,-0.41774 5.92571,-0.21612 3.62436,0.26048 5.08037,0.61728 7.22675,1.77091 3.65303,1.96342 3.75302,2.64477 0.33469,2.28072 -1.5159,-0.16145 -3.76661,-0.0154 -5.09184,0.33051 -4.29195,1.12013 -6.61233,1.04029 -9.04149,-0.31111 z"
       id="path33782" />
    <path
       style="fill:none;stroke:#000000;stroke-width:0.720801px;stroke-linecap:butt;stroke-linejoin:miter;stroke-opacity:1"
       d="m 257.00166,245.27165 c 0.94731,0.71864 2.18614,0.82182 3.18218,1.41645 0.34963,0.20874 0.63841,0.50332 0.96562,0.7439 0.28818,0.21186 0.66838,0.3671 0.92174,0.63179 0.42814,0.4473 0.78948,1.05577 1.20704,1.50817 0.14519,0.15729 0.17873,0.40036 0.32918,0.54008"
       id="path58181" />
    <path
       style="fill:none;stroke:#000000;stroke-width:0.720801px;stroke-linecap:butt;stroke-linejoin:miter;stroke-opacity:1"
       d="m 173.78428,244.11161 c 0.0409,0.19986 0.0978,0.39693 0.1228,0.59958 0.0344,0.27891 -0.5873,0.69988 -0.79006,0.82541 -0.34439,0.21321 -0.59488,0.557 -0.92173,0.78465 -0.90283,0.62883 -1.82204,1.34551 -2.69936,1.9973 -0.0694,0.0516 -0.022,0.37652 -0.022,0.39742"
       id="path58183" />
    <path
       style="fill:#000000;fill-opacity:1;stroke-width:0.250809"
       d="m 167.23828,413.82732 c -0.24205,-6.97829 -0.29814,-155.8043 -0.0597,-158.46055 0.18863,-2.10157 0.30808,-2.50033 1.14491,-3.82165 0.51387,-0.81138 1.22463,-1.75319 1.57946,-2.0929 0.35483,-0.33971 0.64514,-0.75125 0.64514,-0.91453 0,-0.16328 0.64791,-0.81605 1.43979,-1.45061 1.15971,-0.92931 1.74806,-1.20876 3.02458,-1.43658 3.95869,-0.70653 47.26925,-1.2332 68.12559,-0.82844 l 11.97487,0.2324 2.34604,1.00752 c 3.93139,1.68833 4.87104,2.55025 5.86534,5.38017 1.51126,4.30129 1.72362,6.78768 1.92819,22.57669 0.13877,10.71032 -0.13418,72.45481 -0.54652,123.63019 l -0.16679,20.70057 h -48.57201 -48.572 z"
       id="path78533" />
    <path
       style="fill:#000000;fill-opacity:1;stroke-width:0.720801"
       d="m 215.60816,453.37791 c -7.33307,-0.17465 -14.9439,-0.39128 -16.91297,-0.48138 -1.97645,-0.0904 -4.42481,-0.0515 -5.46585,0.0869 -1.03716,0.1379 -4.8148,0.32818 -8.39476,0.42284 -5.61561,0.14847 -6.72508,0.11446 -8.08319,-0.24782 -3.6794,-0.9815 -7.31253,-3.80922 -8.60412,-6.69673 l -0.66557,-1.48801 -0.10079,-13.31206 -0.10078,-13.31206 h 48.66426 48.66425 l -0.13551,9.74519 c -0.0745,5.35986 -0.22555,11.52749 -0.33558,13.70583 -0.17728,3.50964 -0.27212,4.10736 -0.83283,5.24915 -0.8723,1.77628 -3.63661,4.35359 -5.99401,5.58851 l -1.90482,0.99784 -13.23243,0.0297 c -7.27785,0.0163 -19.23224,-0.11323 -26.5653,-0.28788 z"
       id="path78572" />
    <ellipse
       style="fill:#3b3b3b;fill-opacity:1;stroke-width:0.720801"
       id="path84856"
       cx="216.145"
       cy="259.84067"
       rx="1.5712913"
       ry="1.6213863" />
    <path
       style="fill:#000000;fill-opacity:1;stroke-width:0.501619"
       d="m 175.43084,452.34276 c -1.05033,-0.36103 -2.83445,-1.47321 -3.96472,-2.47152 -3.71072,-3.2775 -3.73762,-3.40211 -3.91779,-18.14588 L 167.388,418.60438 h 48.43018 48.43018 l -0.024,9.04455 c -0.0132,4.97451 -0.19949,11.29111 -0.41401,14.0369 l -0.39002,4.99234 -2.17849,2.31083 c -4.395,4.66201 -0.66875,4.31729 -44.90338,4.15407 -30.19163,-0.1114 -39.42917,-0.29212 -40.90762,-0.80031 z"
       id="path86806" />
    <path
       style="fill:#000000;fill-opacity:1;stroke-width:0.501619"
       d="m 177.83176,452.26827 c -3.35021,-0.40252 -5.23182,-1.41035 -7.52668,-4.03146 -2.13417,-2.43759 -2.20025,-2.91467 -2.56939,-18.54966 l -0.26165,-11.08277 h 48.33303 48.33303 l -0.20706,9.80888 c -0.11387,5.39489 -0.32912,11.66883 -0.4783,13.94208 l -0.27125,4.1332 -2.6057,2.65537 c -1.76437,1.798 -3.22672,2.80403 -4.52911,3.11578 -2.14986,0.51461 -73.93951,0.52248 -78.21692,0.009 z"
       id="path86845" />
    <path
       style="fill:#000000;fill-opacity:1;stroke-width:0.501619"
       d="m 177.83176,452.26827 c -3.35021,-0.40252 -5.23182,-1.41035 -7.52668,-4.03146 -2.12928,-2.432 -2.19001,-2.86511 -2.6014,-18.54966 l -0.29067,-11.08277 h 48.44139 48.4414 l -0.28646,9.80888 c -0.15757,5.39489 -0.40783,11.66883 -0.55616,13.94208 l -0.26969,4.1332 -2.6057,2.65537 c -1.76437,1.798 -3.22672,2.80403 -4.52911,3.11578 -2.14986,0.51461 -73.93951,0.52248 -78.21692,0.009 z"
       id="path86884" />
    <path
       style="fill:#000000;fill-opacity:1;stroke-width:0.501619"
       d="m 167.46176,336.02337 c 0,-60.10756 0.14962,-82.36932 0.55909,-83.18445 1.08981,-2.16954 3.98531,-5.47145 5.51272,-6.28649 2.15253,-1.1486 29.93408,-1.87716 59.42125,-1.55829 l 22.28477,0.24097 3.12941,1.71675 c 3.66782,2.0121 4.58596,3.39621 5.75198,8.67119 0.74985,3.39228 0.81988,8.82433 0.7414,57.50395 -0.0476,29.56679 -0.23283,65.28005 -0.41146,79.36281 l -0.3248,25.60502 h -48.33218 -48.33218 z m 50.12163,-76.14461 c 0,-1.35725 -0.16535,-1.52865 -1.47466,-1.52865 -1.02685,0 -1.52659,0.27822 -1.64565,0.91619 -0.23781,1.27415 0.85633,2.47491 2.08949,2.2931 0.78342,-0.1155 1.03082,-0.51886 1.03082,-1.68064 z"
       id="path86923" />
    <path
       style="fill:#000000;fill-opacity:1;stroke-width:0.501619"
       d="m 167.4636,335.92948 0.002,-82.16535 1.03612,-1.78343 c 1.41948,-2.4433 3.3667,-4.52363 5.11612,-5.46585 2.05768,-1.10824 30.373,-1.83392 59.33713,-1.52071 l 22.28476,0.24097 3.14642,1.71675 c 3.64546,1.98904 5.00401,4.18397 5.98023,9.66197 0.63604,3.56911 0.68853,89.43388 0.0834,136.38553 l -0.32346,25.09547 h -48.33248 -48.33218 z m 49.8532,-75.00714 c 0.92982,-1.15607 0.42282,-2.57223 -0.92088,-2.57223 -1.55767,0 -2.44005,1.41436 -1.56283,2.50505 0.80889,1.00572 1.70928,1.03008 2.48371,0.0672 z"
       id="path86962" />
    <path
       style="fill:#000000;fill-opacity:1;stroke-width:0.501619"
       d="m 167.4636,335.92948 0.002,-82.16535 1.03612,-1.78343 c 1.41873,-2.44202 3.36648,-4.52351 5.11315,-5.46427 2.06657,-1.11305 30.04887,-1.83531 59.09016,-1.52519 l 22.52861,0.24058 3.14946,1.71839 c 3.64889,1.99089 5.00702,4.18451 5.98303,9.66362 0.63541,3.56704 0.6884,90.81672 0.0831,136.89508 l -0.32295,24.58592 h -48.33249 -48.3322 z m 50.05849,-75.40422 c 0.41416,-0.67862 0.34976,-1.07678 -0.27913,-1.72572 -1.47931,-1.52647 -3.68635,0.46852 -2.35272,2.12667 0.76782,0.95466 1.91082,0.78053 2.63185,-0.40095 z"
       id="path87001" />
    <path
       style="fill:#000000;fill-opacity:1;stroke-width:0.0627024"
       d="m 263.48015,446.41954 c -0.002,-0.063 0.0787,-1.16657 0.1791,-2.45222 0.43219,-5.53671 0.54251,-8.86691 0.59019,-17.81519 0.0172,-3.22292 0.0436,-6.23963 0.0587,-6.7038 l 0.0275,-0.84395 H 215.8534 167.37123 l -0.0175,1.70381 -0.0175,1.70382 -0.0144,-1.83121 -0.0144,-1.8312 h 48.64521 48.64521 l -0.0375,1.73567 c -0.0205,0.95461 -0.0648,3.78502 -0.0982,6.28978 -0.15073,11.29569 -0.35082,17.16757 -0.64716,18.9919 -0.0861,0.53026 -0.32795,1.29022 -0.33492,1.05259 z"
       id="path87040" />
    <path
       style="fill:#000000;fill-opacity:1;stroke-width:0.0627024"
       d="m 216.47233,453.12465 c -30.58559,-0.14397 -39.27881,-0.31408 -40.95531,-0.80141 -1.03932,-0.30211 -2.93732,-1.51414 -4.41342,-2.81833 -1.79123,-1.58261 -2.45684,-2.57696 -2.84132,-4.24456 -0.51328,-2.22631 -0.58105,-4.04505 -0.7713,-20.70058 -0.0475,-4.15595 -0.0875,-5.90272 -0.13781,-6.0073 -0.054,-0.11238 -0.0533,-0.15868 0.003,-0.19463 0.0573,-0.0366 0.053,-0.61155 -0.0191,-2.55955 -0.11497,-3.10097 -0.21093,-17.92742 -0.2132,-32.94221 l -0.001,-10.62098 h 48.85625 48.85625 v 2.53183 c 0,2.39189 -0.1063,16.88882 -0.2453,33.51901 -0.0344,4.11623 -0.0608,8.68787 -0.0587,10.1592 0.002,1.47133 -0.0126,3.32006 -0.0326,4.10827 -0.0201,0.78822 -0.0639,3.36783 -0.0974,5.73246 -0.12274,8.6659 -0.29671,14.09013 -0.52091,16.24199 -0.0848,0.81421 -0.29573,1.85576 -0.32827,1.62124 -0.01,-0.0717 0.0659,-1.26119 0.16866,-2.64331 0.22713,-3.05669 0.3519,-5.40261 0.43516,-8.18172 0.0648,-2.16275 0.20459,-16.65787 0.1611,-16.70275 -0.0642,-0.0663 -0.0977,1.91634 -0.12682,7.49896 -0.0476,9.12254 -0.14478,12.05783 -0.59604,17.99357 l -0.1937,2.54776 -0.99901,1.05096 c -0.54946,0.57802 -1.46547,1.55948 -2.03559,2.18103 -1.17455,1.2805 -1.56193,1.60931 -2.35104,1.9956 -1.40411,0.68734 -3.31685,0.96986 -7.99353,1.18064 -2.01333,0.0908 -19.75615,0.11974 -33.54817,0.0548 z"
       id="path87079" />
    <path
       style="fill:#000000;fill-opacity:1;stroke-width:0.0443373"
       d="m 167.30925,438.11433 c -0.0822,-5.54867 -0.17319,-18.06473 -0.24407,-33.58746 -0.0921,-20.17904 -0.10159,-24.16316 -0.0573,-24.16316 0.029,0 0.0539,3.50438 0.0738,10.41516 0.0453,15.69179 0.0965,22.0663 0.20019,24.94007 0.10337,2.8638 0.10018,2.61223 0.0331,2.61221 -0.0427,-2e-5 -0.0522,0.30083 -0.0433,1.38494 0.0492,6.09674 0.14197,18.88425 0.1418,19.54673 -1.2e-4,0.45207 -0.017,0.82195 -0.0376,0.82195 -0.0205,0 -0.0505,-0.88669 -0.0666,-1.97044 z"
       id="path87118" />
    <path
       style="fill:#000000;fill-opacity:1;stroke-width:0.720801"
       d="m 178.41491,453.41591 c -1.60328,-0.13916 -3.35187,-0.73211 -5.04805,-1.71182 -1.74882,-1.0101 -3.25834,-2.3252 -4.29013,-3.73758 -0.48315,-0.66137 -0.69627,-1.04632 -1.17972,-2.1309 l -0.39163,-0.87863 -0.0814,-11.47758 c -0.0447,-6.31268 -0.0704,-11.80187 -0.057,-12.1982 0.0138,-0.40931 0.0486,1.32238 0.0803,4.00842 0.16903,14.30205 0.21508,16.02372 0.49195,18.38894 0.26442,2.25881 0.76302,3.48561 1.914,4.70942 0.40466,0.43026 1.4259,1.36887 1.98984,1.82885 0.50796,0.4143 1.61648,1.15864 2.26995,1.52419 0.70304,0.3933 1.21122,0.61078 1.63675,0.70048 0.89595,0.18887 3.49797,0.33428 7.76917,0.43417 2.09393,0.049 7.02995,0.13177 8.24928,0.13836 0.3961,0.002 0.70054,0.0113 0.67652,0.0204 -0.12994,0.0493 -4.30853,0.2488 -7.07081,0.33768 -1.98905,0.064 -6.40586,0.0918 -6.95896,0.0438 z"
       id="path87157" />
    <path
       style="fill:#000000;fill-opacity:1;stroke-width:0.0443373"
       d="m 225.46363,453.16219 c -1.2123,-0.007 -7.11446,-0.0332 -13.11592,-0.0598 -24.37299,-0.10817 -33.16466,-0.25763 -35.98694,-0.6118 -0.8103,-0.10169 -1.01957,-0.16868 -1.83929,-0.58875 -1.51809,-0.77795 -3.12771,-1.99763 -4.5083,-3.41613 -1.67858,-1.72468 -2.1011,-3.3181 -2.29327,-8.64867 -0.0601,-1.66824 -0.12179,-5.44999 -0.22061,-13.5335 -0.0474,-3.87637 -0.0881,-7.17994 -0.0905,-7.34127 -0.004,-0.21526 -0.0136,-0.26336 -0.0393,-0.18073 -0.027,0.0869 -0.0359,0.0556 -0.0393,-0.13737 -0.002,-0.13748 0.0165,-0.27149 0.042,-0.29778 0.0327,-0.0337 0.0263,-0.59927 -0.0219,-1.91975 -0.0375,-1.02956 -0.0682,-1.9444 -0.0682,-2.03297 v -0.16102 h 47.40063 47.40061 v 16.91554 16.91555 l -0.8402,0.90737 c -2.00036,2.16025 -2.21016,2.36248 -2.85285,2.74993 -0.79615,0.47997 -2.09856,0.83382 -3.83605,1.04224 -1.19463,0.1433 -2.86451,0.24844 -5.45587,0.34352 -1.20898,0.0444 -18.0894,0.0839 -23.63484,0.0554 z"
       id="path87196" />
    <path
       style="fill:#000000;fill-opacity:1;stroke-width:0.0443373"
       d="m 224.98351,453.16222 c -41.56359,-0.17573 -48.23774,-0.2989 -49.76077,-0.91836 -0.55263,-0.22477 -1.57649,-0.79995 -2.30428,-1.29448 -1.21797,-0.82761 -2.83835,-2.27978 -3.51278,-3.14813 -1.14137,-1.46951 -1.51067,-3.20936 -1.68571,-7.94167 -0.0643,-1.73883 -0.25665,-14.64255 -0.30989,-20.79133 -0.002,-0.23977 -0.0152,-0.32514 -0.0406,-0.26418 -0.0272,0.0653 -0.0383,0.0214 -0.0406,-0.15988 -0.001,-0.13748 0.0176,-0.27127 0.0428,-0.29732 0.032,-0.0331 0.0255,-0.60567 -0.0219,-1.90363 -0.0373,-1.02096 -0.0677,-1.936 -0.0677,-2.03343 v -0.17714 h 47.40062 47.40061 v 16.91612 16.91611 l -0.83993,0.90788 c -1.45048,1.56778 -2.01065,2.14703 -2.27781,2.35541 -1.51101,1.17855 -3.60601,1.5578 -9.82358,1.7783 -1.26247,0.0447 -17.75305,0.0828 -24.15861,0.0557 z"
       id="path87235" />
    <path
       style="fill:#000000;fill-opacity:1;stroke-width:0.0443373"
       d="m 178.00955,453.35068 c -3.23782,-0.48234 -6.70813,-2.54234 -8.7556,-5.19739 -0.57578,-0.74662 -0.81617,-1.17272 -1.4358,-2.54494 l -0.28759,-0.6369 -0.0324,-4.12103 c -0.0178,-2.26656 -0.0428,-6.5531 -0.0555,-9.52564 l -0.0232,-5.40462 0.0582,4.12102 c 0.13284,9.39523 0.19664,11.43459 0.41991,13.42148 0.26578,2.36534 0.68343,3.48453 1.77694,4.76183 0.27128,0.31687 1.13874,1.13803 1.83871,1.74059 1.07232,0.92307 2.94285,2.08277 3.84916,2.38642 1.02686,0.34403 5.17149,0.53665 13.86134,0.6442 1.32532,0.0164 2.40139,0.0436 2.39128,0.0605 -0.0101,0.0169 -0.33829,0.0447 -0.72926,0.0617 -0.39098,0.0171 -1.10369,0.0504 -1.58381,0.0742 -2.63726,0.1304 -4.65633,0.18406 -7.59458,0.20186 -2.65812,0.0161 -3.35331,0.008 -3.69797,-0.0434 z"
       id="path87274" />
    <path
       style="fill:#000000;fill-opacity:1;stroke-width:0.0615113"
       d=""
       id="path87313" />
    <path
       style="fill:#000000;fill-opacity:1;stroke-width:0.0443373"
       d="m 224.37246,453.16199 c -27.18426,-0.12159 -35.25957,-0.18682 -41.13729,-0.3323 -5.22762,-0.12938 -7.25427,-0.2786 -8.02614,-0.59095 -0.34899,-0.14122 -1.20655,-0.59608 -1.69726,-0.90025 -1.19195,-0.73883 -2.51302,-1.82116 -3.5671,-2.92247 -1.24296,-1.29864 -1.73013,-2.5306 -2.00331,-5.06596 -0.21537,-1.99878 -0.28513,-4.34437 -0.39786,-13.37643 -0.0251,-2.00647 -0.0645,-5.06683 -0.0877,-6.80082 -0.0232,-1.73398 -0.0426,-3.43644 -0.0431,-3.78323 -6.2e-4,-0.42383 -0.0148,-0.6084 -0.0432,-0.56298 -0.0587,0.0937 -0.0584,-0.38281 2.9e-4,-0.496 0.0298,-0.0574 0.0229,-0.66959 -0.0216,-1.89992 -0.0361,-0.99835 -0.0656,-1.90132 -0.0658,-2.0066 l -2.2e-4,-0.19141 h 47.40062 47.40061 v 16.91494 16.91493 l -1.24394,1.34442 c -1.46847,1.58709 -1.77029,1.88035 -2.26407,2.19986 -1.46207,0.94606 -3.60684,1.28873 -9.38967,1.50019 -1.22015,0.0446 -18.54614,0.083 -24.8133,0.055 z"
       id="path87352" />
    <path
       style="fill:#000000;fill-opacity:1;stroke-width:0.00281562"
       d="m 182.9039,452.85951 c -0.0442,-10e-4 -0.15771,-0.004 -0.25224,-0.007 -3.42386,-0.0911 -5.57329,-0.20857 -6.60377,-0.36074 -0.2497,-0.0369 -0.42761,-0.0766 -0.61326,-0.13698 -0.026,-0.008 -0.0325,-0.0116 -0.0325,-0.0158 0,-0.005 0.003,-0.004 0.0325,0.006 0.41095,0.14296 1.4791,0.2578 3.2423,0.34857 1.07146,0.0551 2.49321,0.10625 4.02047,0.14447 0.15931,0.004 0.30618,0.008 0.32638,0.009 0.0365,10e-4 0.0367,10e-4 0.0367,0.009 v 0.007 l -0.0381,-4.6e-4 c -0.021,-2.5e-4 -0.0743,-0.001 -0.11849,-0.003 z"
       id="path87391" />
    <path
       style="fill:#000000;fill-opacity:1;stroke-width:0.00281562"
       d="m 182.7861,452.85518 c -4.06596,-0.10795 -6.32878,-0.2465 -7.11896,-0.43592 -0.0984,-0.0236 -0.2535,-0.0696 -0.26045,-0.0772 -0.005,-0.005 0.002,-0.004 0.0619,0.0154 0.62443,0.19669 2.45699,0.33584 5.82351,0.44218 0.48941,0.0154 0.7973,0.0242 1.41222,0.0401 0.36023,0.009 0.35306,0.009 0.35553,0.0166 10e-4,0.004 -0.0778,0.004 -0.27376,-10e-4 z"
       id="path87430" />
    <path
       style="fill:#000000;fill-opacity:1;stroke-width:0.00281562"
       d="m 182.7861,452.8552 c -0.64161,-0.0168 -1.56959,-0.045 -2.06499,-0.0627 -0.37425,-0.0133 -0.50819,-0.0183 -0.73174,-0.0272 -1.89505,-0.0755 -3.17255,-0.16379 -3.911,-0.27036 -0.2453,-0.0354 -0.43216,-0.0752 -0.60234,-0.12827 -0.0609,-0.019 -0.0754,-0.0246 -0.0692,-0.0267 0.002,-6.3e-4 0.0237,0.005 0.0486,0.0132 0.59602,0.19004 2.26872,0.325 5.31991,0.42924 0.3489,0.0119 0.70826,0.0234 0.94102,0.0301 0.0831,0.002 0.19284,0.006 0.24391,0.007 0.0931,0.003 0.33916,0.009 0.74561,0.0199 0.35869,0.009 0.35167,0.009 0.35415,0.0167 10e-4,0.004 -0.0769,0.004 -0.27376,-10e-4 z"
       id="path87469" />
    <path
       style="fill:#000000;fill-opacity:1;stroke-width:0.720801"
       d="m 179.13981,453.43442 c -0.31578,-0.004 -0.57252,-0.01 -0.68324,-0.0171 -0.0945,-0.006 -0.26093,-0.0235 -0.41161,-0.0428 -0.82683,-0.10622 -1.68919,-0.32852 -2.56336,-0.66079 -0.0409,-0.0155 -0.0755,-0.029 -0.0769,-0.0299 -0.001,-7.4e-4 -0.003,-0.067 -0.003,-0.16913 0,-0.13277 7.1e-4,-0.16717 0.004,-0.1661 0.002,7.3e-4 0.0222,0.007 0.045,0.0144 0.16204,0.0509 0.277,0.0785 0.45498,0.10913 0.85733,0.1477 2.84189,0.26888 5.87993,0.35907 0.38591,0.0114 1.22558,0.0343 1.26186,0.0343 l 0.0132,10e-6 v 0.27568 0.27568 l -0.07,10e-4 c -0.12929,0.003 -1.02809,0.012 -1.65129,0.0161 -0.48412,0.003 -1.90093,0.003 -2.19942,-2.7e-4 z"
       id="path87508" />
    <path
       style="fill:#000000;fill-opacity:1;stroke-width:0.00281562"
       d="m 179.13981,453.43443 c -0.31247,-0.004 -0.57326,-0.01 -0.68324,-0.0171 -0.10267,-0.007 -0.30945,-0.0288 -0.46705,-0.0501 -0.81108,-0.10964 -1.63363,-0.32324 -2.49045,-0.64673 -0.048,-0.0182 -0.0895,-0.0341 -0.0922,-0.0356 -0.004,-0.002 -0.005,-0.0135 -0.005,-0.17004 0,-0.15812 2.7e-4,-0.16733 0.005,-0.16589 0.003,7.3e-4 0.0186,0.006 0.0354,0.0114 0.21954,0.0706 0.42331,0.11209 0.77332,0.15745 1.07667,0.13952 3.15849,0.24957 6.33491,0.33487 0.32779,0.009 0.48557,0.0129 0.49764,0.0129 h 0.0124 v 0.27568 0.27569 l -0.07,10e-4 c -0.12805,0.003 -1.02814,0.012 -1.65129,0.016 -0.48314,0.003 -1.90006,0.003 -2.19941,-2.6e-4 z"
       id="path87547" />
    <path
       style="fill:#000000;fill-opacity:1;stroke-width:0.00796374"
       d="m 179.77241,453.70035 c -0.29702,-0.009 -0.91135,-0.038 -1.07797,-0.0515 -1.05638,-0.0856 -1.80616,-0.24398 -2.92816,-0.61869 -0.26645,-0.089 -0.37923,-0.13006 -0.45471,-0.1656 -0.28126,-0.13246 -0.66958,-0.29422 -1.0035,-0.41803 -0.1683,-0.0624 -0.19478,-0.0742 -0.44333,-0.19702 -0.97873,-0.48378 -1.91563,-1.09097 -2.78836,-1.80706 l -0.1585,-0.13006 -2.6e-4,-0.15294 c -2.4e-4,-0.14492 4.7e-4,-0.15229 0.0135,-0.14071 0.0649,0.0578 0.22803,0.19486 0.35083,0.2948 1.29658,1.05516 2.77539,1.90702 4.29268,2.47277 0.60157,0.22431 1.25498,0.41372 1.77923,0.51576 0.99207,0.1931 2.25427,0.2274 5.63681,0.15318 3.15747,-0.0693 5.94664,-0.17312 8.15338,-0.30354 0.60948,-0.036 1.31219,-0.0846 1.40528,-0.0972 l 0.0294,-0.004 v 0.0879 0.0879 l -0.17835,0.006 c -1.1958,0.0372 -2.94371,0.11266 -5.45846,0.23558 -0.49802,0.0244 -1.13304,0.0552 -1.41116,0.0687 -0.27811,0.0134 -0.57976,0.028 -0.6703,0.0324 -1.29969,0.063 -2.57922,0.11036 -3.50439,0.12956 -0.33887,0.007 -1.37059,0.009 -1.58363,0.002 z"
       id="path87586" />
    <path
       style="fill:#000000;fill-opacity:1;stroke-width:0.0159276"
       d="m 193.20619,453.00719 c 0.0153,-0.004 0.0364,-0.004 0.047,6e-4 0.0107,0.004 -0.002,0.008 -0.0277,0.007 -0.0259,-3.3e-4 -0.0346,-0.004 -0.0193,-0.008 z"
       id="path87625" />
    <path
       style="fill:#000000;fill-opacity:1;stroke-width:0.0159276"
       d="m 192.59047,453.13949 v -0.0832 l 0.20774,-0.019 c 0.11671,-0.0106 0.48262,-0.0189 0.83494,-0.0187 l 0.62719,1.8e-4 -0.0861,0.0414 c -0.0474,0.0228 -0.10849,0.0589 -0.13583,0.0805 -0.0497,0.0391 -0.0502,0.0392 -0.65866,0.0557 -0.33492,0.009 -0.64951,0.0187 -0.6991,0.0215 l -0.0901,0.005 z"
       id="path87664" />
    <path
       style="fill:#000000;fill-opacity:1;stroke-width:0.0159276"
       d="m 247.83745,453.96179 c -1.62116,-0.004 -5.42291,-0.0303 -7.63595,-0.0537 -3.80444,-0.0403 -9.18655,-0.11115 -11.08546,-0.14584 -1.52657,-0.0279 -8.37688,-0.17767 -10.33285,-0.22593 -0.37082,-0.009 -1.44683,-0.0348 -2.39113,-0.057 -0.9443,-0.0222 -2.15438,-0.051 -2.68905,-0.0642 -0.53467,-0.0131 -1.33198,-0.0314 -1.77179,-0.0407 -0.43981,-0.009 -0.87198,-0.0211 -0.96037,-0.0262 -0.15706,-0.009 -0.16072,-0.0103 -0.16072,-0.0485 v -0.0392 l 0.19208,0.009 c 0.10564,0.005 0.49195,0.0159 0.85846,0.0247 0.3665,0.009 1.25906,0.0305 1.98346,0.0481 2.31281,0.0562 2.65823,0.0641 3.84933,0.0887 4.48724,0.0926 10.49065,0.17117 16.80067,0.21996 2.67098,0.0206 8.61469,0.0232 15.00144,0.007 l 4.63723,-0.0122 v 0.11357 0.11358 l -0.11368,0.0106 c -0.46188,0.043 -0.99927,0.0588 -2.25393,0.0663 -0.74596,0.004 -1.61382,0.01 -1.92859,0.012 -0.31477,0.002 -1.21438,0.003 -1.99915,7.3e-4 z"
       id="path87703" />
    <path
       style="fill:#000000;fill-opacity:1;stroke-width:0.04505"
       d="m 256.79688,452.9362 c 1.04951,-0.55458 1.55944,-0.86284 2.27332,-1.37428 1.08921,-0.78032 2.40032,-1.99676 3.23762,-3.00382 0.99786,-1.20021 1.4522,-2.20421 1.62565,-3.59235 0.1808,-1.44709 0.35747,-5.7389 0.45255,-10.99443 0.0194,-1.07253 0.0465,-1.68177 0.0749,-1.68177 0.0739,0 -0.0352,6.13644 -0.17126,9.63299 -0.13826,3.55216 -0.34459,4.53413 -1.25002,5.94912 -0.5178,0.80921 -1.1462,1.52865 -1.87442,2.14594 -0.3049,0.25846 -0.75392,0.6508 -0.99785,0.87186 -0.77931,0.70633 -1.81987,1.41058 -2.927,1.98101 -0.54034,0.2784 -1.30625,0.60806 -1.40777,0.60591 -0.0306,-6.5e-4 0.40328,-0.24373 0.96429,-0.54018 z"
       id="path87742" />
    <path
       style="fill:#000000;fill-opacity:1;stroke-width:0.04505"
       d="m 254.15814,453.75746 c 0,-0.0936 0.0181,-0.0967 0.54327,-0.0922 l 0.54327,0.004 -0.26609,0.0607 c -0.14635,0.0334 -0.39082,0.0749 -0.54327,0.0922 -0.2623,0.0297 -0.27718,0.0262 -0.27718,-0.0654 z"
       id="path87781" />
    <path
       style="fill:#000000;fill-opacity:1;stroke-width:0.0625"
       d=""
       id="path87820" />
    <path
       style="fill:#000000;fill-opacity:1;stroke-width:0.04505"
       d="m 254.43532,453.67483 c 0.0427,-0.0115 0.11254,-0.0115 0.15521,0 0.0427,0.0115 0.008,0.0209 -0.0776,0.0209 -0.0854,0 -0.1203,-0.009 -0.0776,-0.0209 z"
       id="path87859" />
    <path
       style="fill:#000000;fill-opacity:1;stroke-width:0.04505"
       d="m 254.43616,453.67466 c 0.0431,-0.0116 0.10302,-0.0108 0.13304,10e-4 0.03,0.0125 -0.005,0.022 -0.0784,0.0211 -0.0732,-7.3e-4 -0.0977,-0.0112 -0.0546,-0.0228 z"
       id="path87898" />
    <path
       style="fill:#000000;fill-opacity:1;stroke-width:0.0625"
       d=""
       id="path87937" />
    <path
       style="fill:#000000;fill-opacity:1;stroke-width:0.00796374"
       d="m 246.97115,453.81363 v -0.14562 l 2.04423,-0.005 c 1.12432,-0.003 2.73481,-0.008 3.57887,-0.0106 l 1.53463,-0.005 v 0.10966 0.10967 l -0.0373,0.005 c -0.066,0.009 -0.32301,0.0283 -0.48019,0.0367 -0.57109,0.0306 -1.45039,0.0401 -4.29816,0.0463 l -2.34214,0.005 z"
       id="path87976" />
    <path
       style="fill:#000000;fill-opacity:1;stroke-width:0.00796374"
       d="m 254.13672,453.75861 v -0.1173 h 0.63522 0.6352 l 0.98074,-0.51406 c 0.53941,-0.28274 0.98226,-0.5125 0.98413,-0.51057 0.004,0.004 -0.0608,0.0392 -0.64815,0.35326 -0.42893,0.22929 -0.66785,0.3604 -0.79183,0.43451 -0.0906,0.0542 -0.10192,0.0618 -0.10192,0.0689 0,0.04 0.52415,-0.17014 1.05218,-0.42184 0.25393,-0.12105 0.33903,-0.16394 0.55498,-0.27972 0.55729,-0.29879 1.01672,-0.57843 1.50917,-0.91861 0.46831,-0.3235 0.79828,-0.58264 1.2303,-0.96618 0.36785,-0.32659 0.54535,-0.48192 0.83548,-0.73111 0.41428,-0.35585 0.54881,-0.47926 0.78877,-0.72359 0.0819,-0.0834 0.12292,-0.11975 0.13287,-0.11778 0.0108,0.002 -0.0331,0.0529 -0.17335,0.2002 -0.16789,0.17646 -0.2118,0.21717 -0.41511,0.38477 -0.41705,0.3438 -0.90399,0.76808 -1.40579,1.22487 -0.27027,0.24603 -0.41651,0.35942 -0.85598,0.66372 -0.6383,0.44197 -1.17491,0.76681 -1.80315,1.09156 -0.99124,0.51239 -1.88531,0.82921 -2.66161,0.94317 -0.12955,0.019 -0.42879,0.0531 -0.46628,0.0531 -0.0152,0 -0.0158,-0.005 -0.0158,-0.1173 z m 0.28616,0.0685 c 0.0776,-0.009 0.214,-0.0289 0.3031,-0.0442 0.15972,-0.0274 0.48665,-0.0977 0.50701,-0.10898 0.0161,-0.009 -0.81289,-0.0171 -0.9238,-0.009 -0.10703,0.008 -0.13486,0.0165 -0.14808,0.0464 -0.0108,0.0244 -0.0112,0.0677 -7.1e-4,0.0955 0.0152,0.0414 0.0547,0.0445 0.26275,0.0204 z"
       id="path88015" />
    <path
       style="fill:#000000;fill-opacity:1;stroke-width:0.00796374"
       d="m 254.14182,453.79377 c -0.003,-0.0407 -0.005,-0.0917 -0.005,-0.11325 v -0.0392 h 0.63632 c 0.34999,0 0.63487,10e-4 0.63307,0.003 -0.007,0.007 -0.36617,0.0954 -0.49326,0.12148 -0.20965,0.043 -0.63302,0.10192 -0.73174,0.10192 h -0.0342 z m 0.34145,0.029 c 0.0875,-0.0114 0.22792,-0.0334 0.31199,-0.0488 0.15901,-0.0291 0.43039,-0.0887 0.43754,-0.096 0.002,-0.002 0.002,-0.007 -7e-4,-0.009 -0.003,-0.003 -0.22645,-0.006 -0.49718,-0.006 -0.52389,-7.3e-4 -0.54514,3.9e-4 -0.57032,0.0375 -0.0184,0.0272 -0.0162,0.10693 0.004,0.12741 0.0222,0.0229 0.11493,0.0215 0.31519,-0.004 z"
       id="path88054" />
    <path
       style="fill:#000000;fill-opacity:1;stroke-width:0.0110485"
       d=""
       id="path88093" />
    <path
       style="fill:#000000;fill-opacity:1;stroke-width:0.0110485"
       d=""
       id="path88132" />
    <path
       style="fill:#000000;fill-opacity:1;stroke-width:0.0110485"
       d=""
       id="path88171" />
    <path
       style="fill:#000000;fill-opacity:1;stroke-width:0.0110485"
       d=""
       id="path88210" />
    <path
       style="fill:#b93b3b;fill-opacity:1;stroke-width:0.0900999"
       d="m 188.63687,179.52737 c -0.58912,-0.17049 -0.80849,-0.64951 -0.88351,-1.92931 -0.0568,-0.96951 -0.19262,-1.38106 -0.5312,-1.60998 -0.30621,-0.20703 -0.37595,-0.41005 -0.48404,-1.40894 -0.10849,-1.00281 -0.38829,-1.745 -1.02927,-2.7302 -0.97072,-1.49203 -1.18748,-2.76244 -0.48829,-2.8619 0.30182,-0.0429 0.52996,-0.27418 0.52996,-0.53717 0,-0.3011 -0.65217,-0.59883 -1.86264,-0.85032 -1.52256,-0.31634 -1.82953,-0.43157 -3.59223,-1.34836 -1.96814,-1.02365 -2.52338,-1.39121 -3.10401,-2.05482 -1.04264,-1.19165 -0.97708,-2.15515 0.16815,-2.47122 0.40305,-0.11123 0.51277,-0.22394 0.29712,-0.30521 -0.0609,-0.023 -0.67521,-0.0796 -1.36494,-0.12574 -0.68974,-0.0462 -1.33742,-0.13 -1.4393,-0.18626 -0.29389,-0.1623 -0.38326,-0.4324 -0.45508,-1.37546 -0.0782,-1.02731 -0.23281,-1.40371 -0.83422,-2.03124 -0.32626,-0.34043 -0.40784,-0.48876 -0.40784,-0.74154 0,-0.41198 0.3109,-0.87505 0.74143,-1.10432 0.45239,-0.24092 0.77174,-0.13657 0.90835,0.29681 0.0536,0.17027 0.17106,0.36502 0.26087,0.43278 0.17502,0.13206 0.81493,0.16526 0.98863,0.0513 0.22692,-0.14889 0.29425,-0.61405 0.27212,-1.88026 -0.0267,-1.52859 0.0532,-1.77548 0.66492,-2.05659 0.3652,-0.16781 0.64002,-0.40656 1.15742,-1.00552 0.32394,-0.37502 0.7142,-0.44497 1.65854,-0.29728 1.3583,0.21242 1.63869,0.22113 1.79882,0.0559 0.31812,-0.32827 0.30015,-1.20732 -0.0337,-1.64519 -0.14112,-0.18514 -0.25995,-0.2381 -0.53425,-0.2381 -0.39689,0 -0.67458,0.12751 -1.17659,0.54024 -0.40221,0.33068 -0.68149,0.35651 -1.03626,0.0958 -0.55305,-0.40637 -0.52506,-1.25034 0.0515,-1.55049 0.40667,-0.21173 2.66303,-0.19211 3.36063,0.0292 0.55891,0.17734 1.02907,0.57206 1.02907,0.86397 0,0.20491 0.22258,0.42953 0.51772,0.52248 0.41012,0.12916 0.82235,-0.0367 1.26272,-0.50821 0.32966,-0.35293 0.48167,-0.45067 0.70089,-0.45067 0.61621,0 0.88916,0.40399 0.88916,1.31603 0,0.83481 -0.10135,0.92271 -0.97129,0.84236 -0.36828,-0.034 -0.93581,-0.0858 -1.26117,-0.11512 -0.32536,-0.0293 -0.69629,-0.0261 -0.82429,0.007 -0.265,0.0686 -0.42044,0.3899 -0.30174,0.62372 0.16103,0.31727 0.72164,0.37651 2.40587,0.25427 1.43589,-0.10422 2.22923,-0.0853 2.60139,0.0621 0.4429,0.17537 0.30916,1.02697 -0.24195,1.54075 -0.35593,0.33181 -0.37866,0.33914 -0.87286,0.28144 -0.78966,-0.0922 -0.79208,-0.0828 -0.57431,2.23488 0.0703,0.74867 -0.0325,0.91526 -0.60663,0.98203 -0.51664,0.0601 -0.93476,-0.1082 -1.05419,-0.42429 -0.0493,-0.13058 -0.12266,-0.75223 -0.16297,-1.38146 -0.0816,-1.27409 -0.19919,-1.73898 -0.43989,-1.73898 -0.34931,0 -0.5087,1.13908 -0.35762,2.55579 0.12344,1.15763 0.35826,1.85913 0.67161,2.00646 0.25979,0.12213 0.56607,0.75026 0.56894,1.16676 0.004,0.67029 0.55274,0.83449 3.63853,1.09 3.60263,0.2983 4.28127,0.49611 6.68327,1.94801 0.67562,0.40839 1.50393,0.85116 1.84069,0.98395 0.45952,0.18119 0.74014,0.37132 1.12475,0.76209 1.1038,1.12144 1.14297,2.09696 0.10616,2.64364 -0.33002,0.17401 -0.5317,0.20593 -1.30105,0.20593 -1.20758,0 -1.21855,0.0149 -1.16035,1.57957 0.0716,1.92521 0.45743,2.57325 1.62058,2.7221 0.32042,0.041 0.68281,0.14233 0.80533,0.22517 0.74702,0.50507 0.24967,1.37043 -0.92167,1.60362 -0.86382,0.17197 -0.91235,0.18775 -0.85772,0.27896 0.0292,0.0488 0.32481,0.0888 0.65676,0.0888 1.27605,0 1.97864,0.27614 2.02946,0.79764 0.0357,0.36648 -0.39312,0.75828 -0.82995,0.75828 -0.47485,0 -0.6064,0.28315 -0.47987,1.03289 0.14477,0.85791 0.026,1.0537 -0.92037,1.51768 -0.70757,0.34689 -1.21156,0.79052 -1.21156,1.06649 0,0.17873 -0.35363,0.41004 -0.62687,0.41004 -0.45144,0 -0.70356,-0.53955 -0.87564,-1.8738 -0.0579,-0.44921 -0.1251,-0.84977 -0.14926,-0.89012 -0.10494,-0.1752 -0.41279,-0.0419 -0.88232,0.38209 -0.58955,0.53235 -1.2113,0.79782 -2.05147,0.87593 -0.70629,0.0657 -1.06653,0.1893 -1.17805,0.40432 -0.0441,0.0851 -0.10819,0.3723 -0.14239,0.63829 -0.087,0.67658 -0.32342,0.93654 -0.88455,0.97255 -0.24104,0.0154 -0.51643,0.006 -0.61196,-0.0221 z m -0.67212,-13.12413 c 0.56276,-0.0989 1.42235,-0.27852 1.91018,-0.39914 1.82388,-0.45098 3.31089,-0.54646 6.51924,-0.41862 1.14624,0.0457 1.4555,-10e-4 1.54198,-0.23373 0.0873,-0.23476 -0.5101,-0.79765 -1.46757,-1.38279 -3.09915,-1.89399 -4.73866,-2.33882 -9.59944,-2.60452 -2.58503,-0.14131 -4.07785,-0.0335 -5.24304,0.37876 -0.43905,0.15533 -1.39449,0.44404 -2.1232,0.64159 -0.72872,0.19754 -1.38303,0.41912 -1.45403,0.49238 -0.113,0.1166 -0.10734,0.16866 0.0453,0.41749 0.48138,0.78455 3.62949,2.68687 5.0841,3.0722 1.33178,0.3528 2.91739,0.36484 4.78644,0.0364 z"
       id="path97139" />
    <path
       style="fill:#ffffff;fill-opacity:1;stroke-width:0.127421"
       d="m 242.30256,167.11131 c -0.79338,-0.0488 -2.38567,-0.16664 -3.53842,-0.26174 -1.77596,-0.14652 -2.36955,-0.14509 -3.88853,0.009 -2.62867,0.26732 -3.24691,0.20202 -3.92774,-0.41482 -0.95506,-0.86528 -0.45852,-1.46105 3.00291,-3.60302 0.61528,-0.38075 1.42862,-0.95276 1.80745,-1.27115 0.37882,-0.31839 0.89145,-0.62865 1.13918,-0.68944 1.11045,-0.27255 5.87557,-0.41066 8.87872,-0.25735 3.40761,0.17396 4.05623,0.27565 4.56262,0.71534 0.38778,0.3367 0.6233,0.40546 1.83347,0.53533 0.42652,0.0458 0.87496,0.15827 0.99652,0.24999 0.2084,0.15724 0.2089,0.18586 0.009,0.50089 -0.68772,1.08306 -3.39841,3.58073 -4.62318,4.25987 -0.63196,0.35042 -0.67429,0.35563 -2.72563,0.33575 -1.14604,-0.0111 -2.73284,-0.0602 -3.52622,-0.10903 z m 5.30949,-1.34877 c 1.07174,-0.30295 1.97478,-0.77935 3.07966,-1.62468 1.05334,-0.80591 1.2604,-1.10409 0.97279,-1.40089 -0.19328,-0.19943 -2.21327,-0.82762 -3.65457,-1.13651 -1.29118,-0.27672 -4.83673,-0.3779 -6.8363,-0.19508 -3.20218,0.29277 -5.01215,0.79126 -6.03115,1.66106 -0.31607,0.26978 -1.09064,0.77326 -1.72129,1.11886 -1.13598,0.62251 -1.4583,0.98045 -1.16004,1.28822 0.10037,0.10357 1.23245,0.15584 3.7442,0.17288 2.12823,0.0144 4.344,0.1038 5.41915,0.21858 2.23253,0.23833 5.15302,0.18999 6.18755,-0.10244 z"
       id="path97295" />
    <path
       style="fill:#800000;fill-opacity:1;stroke-width:0.127421"
       d="m 241.36178,165.73439 c -1.04152,-0.11515 -3.1963,-0.20459 -5.29547,-0.21981 -2.71813,-0.0197 -3.57671,-0.0648 -3.70037,-0.19452 -0.21399,-0.22442 0.15762,-0.53758 1.40774,-1.1863 0.51787,-0.26874 1.22344,-0.72974 1.56796,-1.02444 0.68569,-0.58657 1.54916,-0.91624 3.22948,-1.23302 2.41774,-0.4558 6.08336,-0.60043 8.25045,-0.32554 1.96184,0.24884 4.79474,1.1223 4.80811,1.48246 0.008,0.22557 -1.58061,1.46495 -2.49082,1.94279 -0.48294,0.25353 -1.18852,0.55085 -1.56796,0.6607 -0.99196,0.28719 -4.05867,0.33544 -6.20912,0.0977 z"
       id="path97371" />
    <path
       style="fill:#800000;fill-opacity:1;stroke-width:0.127421"
       d="m 188.51604,179.40736 c -0.37574,-0.16347 -0.60172,-0.75752 -0.71394,-1.87668 -0.0887,-0.88485 -0.33984,-1.61795 -0.55421,-1.61795 -0.15345,0 -0.35667,-0.60805 -0.45422,-1.35908 -0.12459,-0.95921 -0.37426,-1.62078 -1.06129,-2.81226 -0.73363,-1.2723 -1.01084,-2.17569 -0.76241,-2.48458 0.0903,-0.11229 0.23322,-0.20418 0.31757,-0.20418 0.0843,0 0.25128,-0.11164 0.37095,-0.2481 0.47548,-0.54215 -0.0891,-0.8963 -2.18151,-1.36849 -0.51512,-0.11624 -1.33441,-0.38225 -1.82066,-0.59113 -1.17915,-0.50653 -3.55059,-1.87028 -4.00113,-2.30095 -0.64882,-0.62018 -1.08141,-1.33189 -1.08141,-1.77913 0,-0.50247 0.21514,-0.7562 0.81418,-0.96021 0.2421,-0.0824 0.44018,-0.1997 0.44018,-0.26057 0,-0.16321 -0.31278,-0.22767 -1.56796,-0.32314 -1.46659,-0.11155 -1.65127,-0.2369 -1.75787,-1.19302 -0.13801,-1.2381 -0.29611,-1.68394 -0.81761,-2.30569 -0.56132,-0.66923 -0.57023,-0.70469 -0.30826,-1.22742 0.38464,-0.76752 1.04455,-0.85625 1.4246,-0.19156 0.22583,0.39496 0.32191,0.45302 0.74965,0.45302 0.26985,0 0.55687,-0.0824 0.63784,-0.18304 0.0823,-0.10228 0.17553,-0.80187 0.21137,-1.58559 0.0844,-1.84585 0.11013,-1.94434 0.57172,-2.19065 0.21682,-0.1157 0.66752,-0.47415 1.00156,-0.79657 l 0.60736,-0.58622 1.4497,0.0921 c 1.70568,0.10839 1.81187,0.0603 1.81187,-0.82058 0,-1.21058 -0.69143,-1.51411 -1.79863,-0.78956 -0.72903,0.47708 -0.99336,0.48649 -1.32817,0.0472 -0.33909,-0.4448 -0.3279,-0.63612 0.0606,-1.03702 0.31445,-0.32447 0.34993,-0.32995 1.85019,-0.28535 1.63883,0.0487 2.25036,0.25301 2.5377,0.84773 0.39076,0.80877 1.03442,0.92766 1.71578,0.31693 0.58185,-0.52155 0.87158,-0.65203 1.1803,-0.5316 0.43022,0.16783 0.71335,1.33841 0.4339,1.79385 -0.09,0.1467 -0.37694,0.16367 -1.51298,0.0895 -1.51431,-0.0989 -1.75889,-0.0283 -1.75889,0.5081 0,0.16164 0.0893,0.32924 0.19841,0.37245 0.10913,0.0432 1.23115,0.0786 2.49338,0.0786 1.87803,0 2.32308,0.0349 2.44976,0.19248 0.22005,0.2736 0.0571,0.80535 -0.3872,1.26386 -0.30965,0.31952 -0.44826,0.37554 -0.78832,0.31859 -0.68797,-0.1152 -0.76987,0.0226 -0.73067,1.22914 0.0191,0.59023 0.0614,1.16358 0.0937,1.2741 0.1052,0.3591 -0.25316,0.69216 -0.74473,0.69216 -0.69882,0 -0.82534,-0.22706 -0.9728,-1.7459 -0.16752,-1.72531 -0.3418,-2.09414 -0.74951,-1.58613 -0.21799,0.27163 -0.22021,2.71208 -0.003,3.49751 0.0822,0.29746 0.34592,0.7835 0.58605,1.08009 0.24014,0.29659 0.43662,0.66639 0.43662,0.82179 0,0.44372 0.34352,0.83886 0.85128,0.9792 0.25619,0.0708 1.39716,0.21855 2.5355,0.32832 3.83862,0.37016 4.21365,0.46531 6.27183,1.59109 0.86238,0.4717 1.90664,1.02786 2.32058,1.23591 1.05931,0.53241 1.36463,0.78082 1.80716,1.4702 0.47873,0.74578 0.49358,1.19237 0.0547,1.64521 -0.381,0.39314 -0.53845,0.43937 -1.70477,0.50058 -0.46548,0.0245 -0.91705,0.11748 -1.00348,0.20679 -0.19242,0.19883 -0.16784,1.99865 0.0396,2.89869 0.1754,0.76113 0.64568,1.19878 1.41623,1.31801 0.55576,0.086 1.20935,0.48635 1.20935,0.74076 0,0.33996 -0.73684,0.86496 -1.41911,1.01112 -0.39232,0.084 -0.7133,0.20273 -0.7133,0.26375 0,0.061 0.32457,0.1467 0.72126,0.19042 1.27728,0.14074 1.49822,0.1986 1.71884,0.45015 0.12939,0.14753 0.18589,0.34717 0.14024,0.49557 -0.077,0.25027 -0.55867,0.54666 -0.88844,0.54666 -0.27744,0 -0.45663,0.47526 -0.36637,0.97173 0.1401,0.77059 -10e-4,1.02481 -0.82148,1.47583 -0.41522,0.22837 -0.9309,0.64118 -1.146,0.91735 -0.21509,0.27619 -0.47944,0.53715 -0.58745,0.57991 -0.36606,0.14496 -0.65657,-0.3655 -0.88268,-1.55095 -0.12024,-0.63038 -0.28974,-1.1706 -0.37667,-1.2005 -0.0869,-0.0299 -0.50319,0.1848 -0.92505,0.4771 -0.78077,0.54099 -1.20233,0.69938 -2.26071,0.8494 -0.71713,0.10165 -0.91472,0.28392 -1.01596,0.93722 -0.0424,0.27359 -0.14919,0.59919 -0.23731,0.72354 -0.19263,0.27184 -0.92623,0.39365 -1.32525,0.22005 z m 1.05618,-13.2829 c 2.20467,-0.4721 2.29174,-0.48029 5.2149,-0.49099 3.16781,-0.0116 3.39077,-0.0537 3.11364,-0.58803 -0.31682,-0.61085 -3.16921,-2.27057 -4.89479,-2.84814 -1.69395,-0.56698 -4.65478,-0.90725 -7.9138,-0.90947 -2.11375,-0.001 -2.33456,0.0384 -5.4493,0.98337 -2.02554,0.61451 -2.1067,0.78102 -0.86255,1.76979 1.4679,1.1666 3.71964,2.28989 5.10921,2.54874 1.18715,0.22114 3.27582,0.0502 5.68269,-0.46527 z"
       id="path97447" />
    <path
       style="fill:#800000;fill-opacity:1;stroke-width:0.127421"
       d="m 184.11583,166.44338 c -1.14912,-0.16963 -2.51891,-0.75878 -4.02983,-1.73323 -1.51756,-0.97874 -2.13082,-1.53555 -1.92507,-1.74786 0.0748,-0.0772 0.58084,-0.25634 1.12459,-0.39817 0.54375,-0.14184 1.52487,-0.43563 2.18028,-0.65287 1.00742,-0.33394 1.45346,-0.40533 2.88505,-0.46175 2.88366,-0.11367 6.72907,0.28946 8.52968,0.89418 1.0096,0.33906 2.79605,1.24998 3.92384,2.00077 0.8217,0.54701 1.09615,0.86567 0.91051,1.05721 -0.0488,0.0503 -1.50924,0.093 -3.24549,0.0948 -3.10286,0.003 -3.18575,0.0103 -4.8502,0.41472 -2.66672,0.64794 -3.90701,0.76789 -5.50336,0.53223 z"
       id="path97486" />
    <path
       style="fill:#ffffff;fill-opacity:1;stroke-width:0.127421"
       d="m 183.55392,166.25895 c -1.73847,-0.43427 -5.69398,-2.84802 -5.31239,-3.24176 0.0426,-0.0439 0.99708,-0.37555 2.1212,-0.737 l 2.04385,-0.65719 3.26135,-0.002 c 4.75354,-0.004 6.45403,0.31002 9.15687,1.68771 1.57256,0.80155 2.75961,1.60762 2.75961,1.87392 0,0.14916 -0.59074,0.19448 -3.32407,0.25498 -2.85007,0.0631 -3.494,0.11523 -4.51572,0.3656 -2.8201,0.69105 -4.69655,0.82929 -6.1907,0.45605 z"
       id="path97678" />
    <path
       style="fill:#ffffff;fill-opacity:1;stroke-width:0.127421"
       d="m 241.48723,165.68347 c -0.48294,-0.0509 -2.48679,-0.1318 -4.45301,-0.17979 -4.01532,-0.098 -4.67834,-0.15204 -4.60842,-0.37557 0.0263,-0.084 0.43888,-0.37899 0.91693,-0.65557 0.47804,-0.27657 1.32075,-0.81341 1.87267,-1.19297 1.21882,-0.83819 1.7158,-1.02672 3.57494,-1.3561 4.47095,-0.79213 9.3918,-0.46821 12.27834,0.80823 0.5469,0.24184 0.54868,0.24476 0.31359,0.51456 -0.83131,0.95407 -3.13325,2.21348 -4.4482,2.43363 -0.8832,0.14787 -4.05794,0.14996 -5.44684,0.004 z"
       id="path97717" />
    <path
       style="fill:#800000;fill-opacity:1;stroke-width:0.127421"
       d="m 242.30256,167.11131 c -0.79338,-0.0488 -2.38567,-0.16664 -3.53842,-0.26174 -1.77596,-0.14652 -2.36955,-0.14509 -3.88853,0.009 -2.62867,0.26732 -3.24691,0.20202 -3.92774,-0.41482 -0.95506,-0.86528 -0.45852,-1.46105 3.00291,-3.60302 0.61528,-0.38075 1.42862,-0.95276 1.80745,-1.27115 0.37882,-0.31839 0.89145,-0.62852 1.13918,-0.68916 1.13147,-0.27697 5.76092,-0.4131 8.81787,-0.2593 3.47372,0.17477 4.11411,0.27475 4.63016,0.72282 0.37182,0.32284 0.59451,0.3851 1.88394,0.52669 0.38899,0.0427 0.8092,0.1546 0.93382,0.24863 0.21813,0.16459 0.21785,0.18479 -0.008,0.5426 -0.67151,1.06476 -3.41492,3.57802 -4.63102,4.24252 -0.59561,0.32545 -0.67858,0.33515 -2.69689,0.31558 -1.14531,-0.0111 -2.73152,-0.0602 -3.5249,-0.10903 z m 5.30056,-1.34904 c 1.00746,-0.28122 2.13223,-0.88508 3.18598,-1.71049 1.20468,-0.94361 1.28268,-1.18217 0.49727,-1.5208 -0.77134,-0.33257 -3.40475,-0.97762 -4.53081,-1.10982 -2.24909,-0.26406 -5.83058,-0.12207 -8.18444,0.32448 -1.68151,0.31899 -2.5547,0.65187 -3.32129,1.26611 -0.38869,0.31145 -1.15061,0.80458 -1.69314,1.09583 -1.08358,0.58172 -1.48402,0.94721 -1.37092,1.25131 0.0885,0.23788 -0.17523,0.22037 4.09583,0.27201 1.89724,0.0229 4.23976,0.1293 5.20563,0.23636 2.13039,0.23615 5.07485,0.1856 6.11589,-0.10499 z"
       id="path97793" />
    <text
       xml:space="preserve"
       id="text103882"
       style="font-style:normal;font-variant:normal;font-weight:normal;font-stretch:normal;font-size:40px;line-height:1.25;font-family:Impact;-inkscape-font-specification:Impact;white-space:pre;shape-inside:url(#rect103884);fill:#660000;fill-opacity:1;stroke:none"
       transform="matrix(0.71028516,0,0,0.65152812,-248.99694,146.37786)"><tspan
         x="586.89844"
         y="289.65267"
         id="tspan169757">Deamon</tspan></text>
    <text
       xml:space="preserve"
       id="text132683"
       style="font-style:normal;font-weight:normal;font-size:40px;line-height:1.25;font-family:sans-serif;white-space:pre;shape-inside:url(#rect132685);fill:#ffffff;fill-opacity:1;stroke:none"
       transform="matrix(0.68722882,0,0,0.63386823,395.29435,270.77738)"><tspan
         x="-333"
         y="131.49321"
         id="tspan169759">Review</tspan></text>
    <text
       xml:space="preserve"
       id="text147473"
       style="font-style:normal;font-weight:normal;font-size:40px;line-height:1.25;font-family:sans-serif;white-space:pre;shape-inside:url(#rect147475);fill:#000000;fill-opacity:1;stroke:none" />
  </g>
</svg>
